G04*
G04 #@! TF.GenerationSoftware,Altium Limited,CircuitStudio,1.5.2 (30)*
G04*
G04 Layer_Color=8150272*
%FSLAX25Y25*%
%MOIN*%
G70*
G01*
G75*
%ADD104C,0.12362*%
%ADD105R,0.12362X0.12362*%
%ADD106R,0.06457X0.06457*%
%ADD107C,0.06457*%
%ADD108C,0.20472*%
%ADD109R,0.20472X0.20472*%
%ADD110R,0.20472X0.20472*%
%ADD111O,0.20472X0.12598*%
%ADD112R,0.20472X0.12598*%
%ADD113O,0.07402X0.04252*%
%ADD114O,0.08583X0.04252*%
%ADD115R,0.00315X0.00315*%
%ADD116C,0.08425*%
%ADD117C,0.02913*%
D104*
X200472Y11417D02*
D03*
X220472D02*
D03*
X110315D02*
D03*
X130315D02*
D03*
X20551D02*
D03*
X40551D02*
D03*
D105*
X240472D02*
D03*
X150315D02*
D03*
X60551D02*
D03*
D106*
X235433Y109449D02*
D03*
X279134Y159449D02*
D03*
X247638Y153150D02*
D03*
D107*
X225433Y109449D02*
D03*
X269134Y159449D02*
D03*
X237638Y153150D02*
D03*
X227638D02*
D03*
X217638D02*
D03*
D108*
X358268Y15748D02*
D03*
Y76772D02*
D03*
X11811Y124016D02*
D03*
X328740Y70866D02*
D03*
X11811Y165354D02*
D03*
X358268D02*
D03*
X11811Y51181D02*
D03*
X173228D02*
D03*
Y161417D02*
D03*
D109*
X358268Y47244D02*
D03*
X11811Y94488D02*
D03*
D110*
X299213Y70866D02*
D03*
D111*
X122047Y145669D02*
D03*
Y125984D02*
D03*
X94488D02*
D03*
Y145669D02*
D03*
X66929D02*
D03*
Y125984D02*
D03*
X39370D02*
D03*
Y145669D02*
D03*
X94488Y70866D02*
D03*
Y51181D02*
D03*
X66929D02*
D03*
Y70866D02*
D03*
X39370D02*
D03*
Y51181D02*
D03*
X122047D02*
D03*
Y70866D02*
D03*
D112*
Y165354D02*
D03*
X94488D02*
D03*
X66929D02*
D03*
X39370D02*
D03*
X94488Y90551D02*
D03*
X66929D02*
D03*
X39370D02*
D03*
X122047D02*
D03*
D113*
X368356Y147126D02*
D03*
Y113110D02*
D03*
D114*
X352018Y147126D02*
D03*
Y113110D02*
D03*
D115*
X353986Y118740D02*
D03*
Y141496D02*
D03*
D116*
X249213Y64173D02*
D03*
D117*
X272047Y120866D02*
D03*
X281496D02*
D03*
Y111417D02*
D03*
X272047D02*
D03*
X276772Y116142D02*
D03*
M02*
