G04*
G04 #@! TF.GenerationSoftware,Altium Limited,CircuitStudio,1.5.2 (30)*
G04*
G04 Layer_Physical_Order=4*
G04 Layer_Color=12500520*
%FSLAX25Y25*%
%MOIN*%
G70*
G01*
G75*
%ADD38C,0.03937*%
%ADD39C,0.01575*%
%ADD40C,0.07874*%
%ADD41C,0.02362*%
%ADD43C,0.01181*%
%ADD53C,0.11811*%
%ADD54R,0.11811X0.11811*%
%ADD55R,0.05906X0.05906*%
%ADD56C,0.05906*%
%ADD57C,0.19685*%
%ADD58R,0.19685X0.19685*%
%ADD59R,0.19685X0.19685*%
%ADD60O,0.19685X0.11811*%
%ADD61R,0.19685X0.11811*%
%ADD62O,0.07087X0.03937*%
%ADD63O,0.08268X0.03937*%
%ADD64C,0.07874*%
%ADD65C,0.03937*%
%ADD66C,0.02362*%
G36*
X370079Y171966D02*
Y150250D01*
X369931Y150120D01*
X368856D01*
Y147126D01*
Y144132D01*
X369931D01*
X370079Y144002D01*
Y116234D01*
X369931Y116104D01*
X368856D01*
Y113110D01*
Y110116D01*
X369931D01*
X370079Y109987D01*
Y95194D01*
X370079D01*
X370079Y84646D01*
X365743D01*
X364661Y85571D01*
X363205Y86462D01*
X361629Y87115D01*
X359969Y87514D01*
X358768Y87608D01*
Y76772D01*
X357768D01*
Y87608D01*
X356566Y87514D01*
X354907Y87115D01*
X353330Y86462D01*
X351875Y85571D01*
X350792Y84646D01*
X338583D01*
X283465D01*
X277559Y78740D01*
Y74362D01*
X277249Y74212D01*
X276772Y74150D01*
X276488Y74519D01*
X275994Y74898D01*
X275420Y75136D01*
X274803Y75217D01*
X274186Y75136D01*
X273612Y74898D01*
X273118Y74519D01*
X272740Y74026D01*
X272502Y73451D01*
X272421Y72835D01*
X272502Y72218D01*
X272740Y71643D01*
X273118Y71150D01*
X273612Y70771D01*
X274186Y70533D01*
X274803Y70452D01*
X275420Y70533D01*
X275994Y70771D01*
X276488Y71150D01*
X276772Y71520D01*
X277249Y71458D01*
X277559Y71307D01*
Y59055D01*
X283465Y53150D01*
X283465Y11811D01*
X265748Y11811D01*
X256299Y21260D01*
X14879Y21260D01*
X3937Y32202D01*
Y42612D01*
X4724Y42975D01*
X5418Y42382D01*
X6873Y41491D01*
X8450Y40837D01*
X10110Y40439D01*
X11311Y40344D01*
Y51181D01*
X11811D01*
Y51681D01*
X22648D01*
X22553Y52882D01*
X22206Y54331D01*
X22635Y55118D01*
X28815D01*
X29287Y54331D01*
X29022Y53837D01*
X28627Y52535D01*
X28543Y51681D01*
X39370D01*
X50197D01*
X50113Y52535D01*
X49718Y53837D01*
X49454Y54331D01*
X49926Y55118D01*
X56374D01*
X56845Y54331D01*
X56581Y53837D01*
X56186Y52535D01*
X56102Y51681D01*
X66929D01*
X77756D01*
X77672Y52535D01*
X77277Y53837D01*
X77013Y54331D01*
X77485Y55118D01*
X83933D01*
X84405Y54331D01*
X84140Y53837D01*
X83746Y52535D01*
X83662Y51681D01*
X94488D01*
X105315D01*
X105231Y52535D01*
X104836Y53837D01*
X104572Y54331D01*
X105044Y55118D01*
X111492D01*
X111964Y54331D01*
X111699Y53837D01*
X111305Y52535D01*
X111221Y51681D01*
X122047D01*
X132874D01*
X132790Y52535D01*
X132395Y53837D01*
X132131Y54331D01*
X132603Y55118D01*
X133858D01*
X139764Y61024D01*
X139764Y98425D01*
X135827Y102362D01*
X25591D01*
X24333Y107556D01*
X3937D01*
Y115446D01*
X4724Y115809D01*
X5418Y115217D01*
X6873Y114325D01*
X8450Y113672D01*
X10110Y113274D01*
X11311Y113179D01*
Y124016D01*
Y134852D01*
X10110Y134758D01*
X8450Y134360D01*
X6873Y133706D01*
X5418Y132815D01*
X4724Y132222D01*
X3937Y132585D01*
Y156785D01*
X4724Y157148D01*
X5418Y156555D01*
X6873Y155664D01*
X8450Y155011D01*
X10110Y154612D01*
X11311Y154518D01*
Y165354D01*
Y176191D01*
X10110Y176096D01*
X8450Y175698D01*
X6873Y175045D01*
X5418Y174153D01*
X4724Y173561D01*
X3937Y173924D01*
Y180992D01*
X4511Y181851D01*
X5732Y183244D01*
X7125Y184466D01*
X7984Y185039D01*
X357005D01*
X370079Y171966D01*
D02*
G37*
%LPC*%
G36*
X351518Y112610D02*
X346924D01*
X346960Y112335D01*
X347259Y111613D01*
X347735Y110993D01*
X348355Y110517D01*
X349077Y110218D01*
X349852Y110116D01*
X351518D01*
Y112610D01*
D02*
G37*
G36*
X367856Y112610D02*
X363853D01*
X363889Y112335D01*
X364189Y111613D01*
X364664Y110993D01*
X365284Y110517D01*
X366007Y110218D01*
X366781Y110116D01*
X367856D01*
Y112610D01*
D02*
G37*
G36*
X357111Y112610D02*
X352518D01*
Y110116D01*
X354183D01*
X354958Y110218D01*
X355680Y110517D01*
X356300Y110993D01*
X356776Y111613D01*
X357075Y112335D01*
X357111Y112610D01*
D02*
G37*
G36*
X239567Y113583D02*
X231299D01*
Y105315D01*
X239567D01*
Y113583D01*
D02*
G37*
G36*
X274016Y94902D02*
X273399Y94821D01*
X272825Y94583D01*
X272331Y94204D01*
X271952Y93711D01*
X271714Y93136D01*
X271633Y92520D01*
X271714Y91903D01*
X271952Y91328D01*
X272331Y90835D01*
X272825Y90456D01*
X273399Y90218D01*
X274016Y90137D01*
X274632Y90218D01*
X275207Y90456D01*
X275700Y90835D01*
X276079Y91328D01*
X276317Y91903D01*
X276398Y92520D01*
X276317Y93136D01*
X276079Y93711D01*
X275700Y94204D01*
X275508Y94352D01*
X275267Y94537D01*
D01*
X275207Y94583D01*
X274632Y94821D01*
X274016Y94902D01*
D02*
G37*
G36*
X179134Y87028D02*
X178517Y86947D01*
X177943Y86709D01*
X177559Y86415D01*
X177175Y86709D01*
X176601Y86947D01*
X175984Y87028D01*
X175368Y86947D01*
X174793Y86709D01*
X174300Y86330D01*
X173921Y85837D01*
X173683Y85262D01*
X173602Y84646D01*
X173683Y84029D01*
X173921Y83454D01*
X174300Y82961D01*
X174793Y82582D01*
X175368Y82344D01*
X175984Y82263D01*
X176601Y82344D01*
X177175Y82582D01*
X177559Y82877D01*
X177943Y82582D01*
X178517Y82344D01*
X179134Y82263D01*
X179751Y82344D01*
X180325Y82582D01*
X180819Y82961D01*
X181197Y83454D01*
X181435Y84029D01*
X181517Y84646D01*
X181435Y85262D01*
X181197Y85837D01*
X180819Y86330D01*
X180325Y86709D01*
X179751Y86947D01*
X179134Y87028D01*
D02*
G37*
G36*
X225433Y113618D02*
X224354Y113476D01*
X223348Y113060D01*
X222485Y112397D01*
X221822Y111534D01*
X221406Y110528D01*
X221264Y109449D01*
X221406Y108370D01*
X221822Y107364D01*
X222485Y106500D01*
X223348Y105838D01*
X224354Y105421D01*
X225433Y105279D01*
X226512Y105421D01*
X227518Y105838D01*
X228381Y106500D01*
X229044Y107364D01*
X229461Y108370D01*
X229603Y109449D01*
X229461Y110528D01*
X229044Y111534D01*
X228381Y112397D01*
X227518Y113060D01*
X226512Y113476D01*
X225433Y113618D01*
D02*
G37*
G36*
X196063Y95690D02*
X195446Y95609D01*
X194872Y95370D01*
X194378Y94992D01*
X194000Y94498D01*
X193762Y93924D01*
X193680Y93307D01*
X193762Y92690D01*
X194000Y92116D01*
X194378Y91622D01*
X194872Y91244D01*
X195446Y91006D01*
X196063Y90925D01*
X196680Y91006D01*
X197254Y91244D01*
X197748Y91622D01*
X198126Y92116D01*
X198364Y92690D01*
X198446Y93307D01*
X198364Y93924D01*
X198126Y94498D01*
X197748Y94992D01*
X197254Y95370D01*
X196680Y95609D01*
X196063Y95690D01*
D02*
G37*
G36*
X66429Y125484D02*
X56102D01*
X56186Y124630D01*
X56581Y123329D01*
X57223Y122129D01*
X58086Y121078D01*
X59137Y120215D01*
X60337Y119573D01*
X61638Y119179D01*
X62992Y119045D01*
X66429D01*
Y125484D01*
D02*
G37*
G36*
X50197Y125484D02*
X39870D01*
Y119045D01*
X43307D01*
X44661Y119179D01*
X45963Y119573D01*
X47162Y120215D01*
X48214Y121078D01*
X49077Y122129D01*
X49718Y123329D01*
X50113Y124630D01*
X50197Y125484D01*
D02*
G37*
G36*
X93988Y125484D02*
X83662D01*
X83746Y124630D01*
X84140Y123329D01*
X84782Y122129D01*
X85645Y121078D01*
X86696Y120215D01*
X87896Y119573D01*
X89197Y119179D01*
X90551Y119045D01*
X93988D01*
Y125484D01*
D02*
G37*
G36*
X77756Y125484D02*
X67429D01*
Y119045D01*
X70866D01*
X72220Y119179D01*
X73522Y119573D01*
X74721Y120215D01*
X75773Y121078D01*
X76636Y122129D01*
X77277Y123329D01*
X77672Y124630D01*
X77756Y125484D01*
D02*
G37*
G36*
X38870Y125484D02*
X28543D01*
X28627Y124630D01*
X29022Y123329D01*
X29664Y122129D01*
X30527Y121078D01*
X31578Y120215D01*
X32778Y119573D01*
X34079Y119179D01*
X35433Y119045D01*
X38870D01*
Y125484D01*
D02*
G37*
G36*
X367856Y116104D02*
X366781D01*
X366007Y116002D01*
X365284Y115703D01*
X364664Y115227D01*
X364189Y114607D01*
X363889Y113885D01*
X363853Y113610D01*
X367856D01*
Y116104D01*
D02*
G37*
G36*
X22648Y123516D02*
X12311D01*
Y113179D01*
X13512Y113274D01*
X15172Y113672D01*
X16749Y114325D01*
X18204Y115217D01*
X19502Y116325D01*
X20610Y117623D01*
X21502Y119078D01*
X22155Y120655D01*
X22553Y122314D01*
X22648Y123516D01*
D02*
G37*
G36*
X316929Y124722D02*
X298737D01*
X290551Y116535D01*
X254390Y116535D01*
X253906Y117323D01*
X253957Y117717D01*
X253876Y118333D01*
X253638Y118908D01*
X253259Y119401D01*
X252766Y119780D01*
X252191Y120018D01*
X251575Y120099D01*
X250958Y120018D01*
X250383Y119780D01*
X249890Y119401D01*
X249511Y118908D01*
X249273Y118333D01*
X249192Y117717D01*
X249273Y117100D01*
X249511Y116525D01*
X249584Y116431D01*
X244094Y110942D01*
X244094Y101100D01*
X248031Y96457D01*
X286817D01*
X286872Y96037D01*
X287110Y95462D01*
X287489Y94969D01*
X287982Y94590D01*
X288557Y94352D01*
X289173Y94271D01*
X289790Y94352D01*
X290365Y94590D01*
X290858Y94969D01*
X291237Y95462D01*
X291475Y96037D01*
X291530Y96457D01*
X299213D01*
X305118Y90551D01*
X314961D01*
X320866Y96457D01*
X320866D01*
Y120785D01*
X316929Y124722D01*
D02*
G37*
G36*
X353986Y121222D02*
X353344Y121137D01*
X352745Y120889D01*
X352231Y120495D01*
X351837Y119981D01*
X351589Y119383D01*
X351504Y118740D01*
X351589Y118098D01*
X351837Y117499D01*
X352231Y116985D01*
X352353Y116892D01*
X352086Y116104D01*
X349852D01*
X349077Y116002D01*
X348355Y115703D01*
X347735Y115227D01*
X347259Y114607D01*
X346960Y113885D01*
X346924Y113610D01*
X352018D01*
X357111D01*
X357075Y113885D01*
X356776Y114607D01*
X356300Y115227D01*
X355680Y115703D01*
X355411Y115815D01*
X355325Y116179D01*
X355356Y116690D01*
X355741Y116985D01*
X356136Y117499D01*
X356383Y118098D01*
X356468Y118740D01*
X356383Y119383D01*
X356136Y119981D01*
X355741Y120495D01*
X355227Y120889D01*
X354629Y121137D01*
X353986Y121222D01*
D02*
G37*
G36*
X66429Y50681D02*
X56102D01*
X56186Y49827D01*
X56581Y48526D01*
X57223Y47326D01*
X58086Y46275D01*
X59137Y45412D01*
X60337Y44770D01*
X61638Y44376D01*
X62992Y44242D01*
X66429D01*
Y50681D01*
D02*
G37*
G36*
X50197Y50681D02*
X39870D01*
Y44242D01*
X43307D01*
X44661Y44376D01*
X45963Y44770D01*
X47162Y45412D01*
X48214Y46275D01*
X49077Y47326D01*
X49718Y48526D01*
X50113Y49827D01*
X50197Y50681D01*
D02*
G37*
G36*
X93988Y50681D02*
X83662D01*
X83746Y49827D01*
X84140Y48526D01*
X84782Y47326D01*
X85645Y46275D01*
X86696Y45412D01*
X87896Y44770D01*
X89197Y44376D01*
X90551Y44242D01*
X93988D01*
Y50681D01*
D02*
G37*
G36*
X77756Y50681D02*
X67429D01*
Y44242D01*
X70866D01*
X72220Y44376D01*
X73522Y44770D01*
X74721Y45412D01*
X75773Y46275D01*
X76636Y47326D01*
X77277Y48526D01*
X77672Y49827D01*
X77756Y50681D01*
D02*
G37*
G36*
X172728Y50681D02*
X162392D01*
X162486Y49480D01*
X162885Y47820D01*
X163538Y46244D01*
X164429Y44788D01*
X165538Y43491D01*
X166836Y42382D01*
X168291Y41491D01*
X169868Y40837D01*
X171527Y40439D01*
X172728Y40344D01*
Y50681D01*
D02*
G37*
G36*
X22648D02*
X12311D01*
Y40344D01*
X13512Y40439D01*
X15172Y40837D01*
X16749Y41491D01*
X18204Y42382D01*
X19502Y43491D01*
X20610Y44788D01*
X21502Y46244D01*
X22155Y47820D01*
X22553Y49480D01*
X22648Y50681D01*
D02*
G37*
G36*
X38870D02*
X28543D01*
X28627Y49827D01*
X29022Y48526D01*
X29664Y47326D01*
X30527Y46275D01*
X31578Y45412D01*
X32778Y44770D01*
X34079Y44376D01*
X35433Y44242D01*
X38870D01*
Y50681D01*
D02*
G37*
G36*
X184065D02*
X173728D01*
Y40344D01*
X174930Y40439D01*
X176589Y40837D01*
X178166Y41491D01*
X179621Y42382D01*
X180919Y43491D01*
X182027Y44788D01*
X182919Y46244D01*
X183572Y47820D01*
X183970Y49480D01*
X184065Y50681D01*
D02*
G37*
G36*
X105315Y50681D02*
X94988D01*
Y44242D01*
X98425D01*
X99779Y44376D01*
X101081Y44770D01*
X102280Y45412D01*
X103332Y46275D01*
X104195Y47326D01*
X104836Y48526D01*
X105231Y49827D01*
X105315Y50681D01*
D02*
G37*
G36*
X242913Y69705D02*
X242297Y69624D01*
X241722Y69386D01*
X241229Y69008D01*
X240850Y68514D01*
X240612Y67940D01*
X240531Y67323D01*
X240612Y66706D01*
X240850Y66132D01*
X241144Y65748D01*
X240850Y65364D01*
X240612Y64790D01*
X240531Y64173D01*
X240612Y63557D01*
X240850Y62982D01*
X241229Y62489D01*
X241722Y62110D01*
X242297Y61872D01*
X242453Y61851D01*
X242818Y61034D01*
X242581Y60459D01*
X242499Y59842D01*
X242581Y59226D01*
X242818Y58651D01*
X243197Y58158D01*
X243691Y57779D01*
X244265Y57541D01*
X244882Y57460D01*
X245498Y57541D01*
X246073Y57779D01*
X246567Y58158D01*
X246945Y58651D01*
X246973Y58718D01*
X247183Y59226D01*
X247974Y59201D01*
X248209Y59129D01*
X249213Y59030D01*
X250216Y59129D01*
X251181Y59422D01*
X252070Y59897D01*
X252849Y60537D01*
X253489Y61316D01*
X253964Y62205D01*
X254257Y63170D01*
X254356Y64173D01*
X254257Y65176D01*
X253964Y66141D01*
X253489Y67031D01*
X252849Y67810D01*
X252070Y68449D01*
X251181Y68925D01*
X250216Y69217D01*
X249213Y69316D01*
X248209Y69217D01*
X247245Y68925D01*
X246355Y68449D01*
X245952Y68118D01*
X245932Y68113D01*
X245043Y68355D01*
X244977Y68514D01*
X244598Y69008D01*
X244105Y69386D01*
X243530Y69624D01*
X242913Y69705D01*
D02*
G37*
G36*
X259055Y56720D02*
X258233Y56612D01*
X257467Y56295D01*
X256809Y55790D01*
X256304Y55132D01*
X256053Y54525D01*
X255987Y54365D01*
X255940Y54008D01*
X255912Y53796D01*
X255339Y53277D01*
X255133Y53175D01*
X255118Y53177D01*
X254296Y53069D01*
X253530Y52751D01*
X252872Y52246D01*
X252367Y51588D01*
X252050Y50822D01*
X251941Y50000D01*
X252050Y49178D01*
X252367Y48412D01*
X252872Y47754D01*
X253530Y47249D01*
X254296Y46931D01*
X254886Y46854D01*
Y46060D01*
X254296Y45982D01*
X253530Y45665D01*
X252872Y45160D01*
X252367Y44502D01*
X252050Y43736D01*
X252003Y43382D01*
X251195Y43276D01*
X251176Y43321D01*
X250672Y43979D01*
X250014Y44483D01*
X249247Y44801D01*
X248425Y44909D01*
X247603Y44801D01*
X246837Y44483D01*
X246179Y43979D01*
X245674Y43321D01*
X245357Y42555D01*
X245248Y41732D01*
X245250Y41718D01*
X245148Y41511D01*
X244629Y40939D01*
X244417Y40911D01*
X244060Y40864D01*
X243900Y40798D01*
X243293Y40546D01*
X242636Y40042D01*
X242131Y39384D01*
X241813Y38618D01*
X241705Y37795D01*
X241813Y36973D01*
X242131Y36207D01*
X242636Y35549D01*
X243293Y35044D01*
X244060Y34727D01*
X244882Y34618D01*
X245704Y34727D01*
X246470Y35044D01*
X247128Y35549D01*
X247633Y36207D01*
X247950Y36973D01*
X248059Y37795D01*
X248057Y37810D01*
X248103Y37903D01*
X249066Y38075D01*
X249219Y37936D01*
X249247Y37724D01*
X249294Y37367D01*
X249360Y37207D01*
X249611Y36601D01*
X250116Y35943D01*
X250774Y35438D01*
X251540Y35120D01*
X252362Y35012D01*
X253184Y35120D01*
X253951Y35438D01*
X254608Y35943D01*
X255113Y36601D01*
X255431Y37367D01*
X255477Y37720D01*
X256285Y37826D01*
X256304Y37782D01*
X256809Y37124D01*
X257467Y36619D01*
X258233Y36302D01*
X259055Y36193D01*
X259877Y36302D01*
X260644Y36619D01*
X261301Y37124D01*
X261806Y37782D01*
X262124Y38548D01*
X262232Y39370D01*
X262124Y40192D01*
X261806Y40958D01*
X261301Y41616D01*
X260644Y42121D01*
X259877Y42439D01*
X259287Y42516D01*
Y43310D01*
X259877Y43388D01*
X260644Y43705D01*
X261301Y44210D01*
X261806Y44868D01*
X262124Y45634D01*
X262232Y46457D01*
X262124Y47279D01*
X261806Y48045D01*
X261301Y48703D01*
X260644Y49208D01*
X259877Y49525D01*
X259287Y49603D01*
Y50397D01*
X259877Y50475D01*
X260644Y50792D01*
X261301Y51297D01*
X261806Y51955D01*
X262124Y52721D01*
X262232Y53543D01*
X262124Y54365D01*
X261806Y55132D01*
X261301Y55790D01*
X260644Y56295D01*
X259877Y56612D01*
X259055Y56720D01*
D02*
G37*
G36*
X192520Y87422D02*
X191903Y87341D01*
X191328Y87103D01*
X190835Y86724D01*
X190456Y86231D01*
X190218Y85656D01*
X190137Y85039D01*
X190218Y84423D01*
X190456Y83848D01*
X190835Y83355D01*
X191328Y82976D01*
X191903Y82738D01*
X192520Y82657D01*
X193136Y82738D01*
X193711Y82976D01*
X194204Y83355D01*
X194583Y83848D01*
X194821Y84423D01*
X194902Y85039D01*
X194821Y85656D01*
X194583Y86231D01*
X194204Y86724D01*
X193711Y87103D01*
X193136Y87341D01*
X192520Y87422D01*
D02*
G37*
G36*
X224803Y77186D02*
X224186Y77105D01*
X223612Y76867D01*
X223118Y76488D01*
X222740Y75994D01*
X222502Y75420D01*
X222421Y74803D01*
X222502Y74186D01*
X222740Y73612D01*
X223118Y73118D01*
X223612Y72740D01*
X224186Y72502D01*
X224803Y72421D01*
X225420Y72502D01*
X225994Y72740D01*
X226488Y73118D01*
X226867Y73612D01*
X227105Y74186D01*
X227186Y74803D01*
X227105Y75420D01*
X226867Y75994D01*
X226488Y76488D01*
X225994Y76867D01*
X225420Y77105D01*
X224803Y77186D01*
D02*
G37*
G36*
X132874Y50681D02*
X122547D01*
Y44242D01*
X125984D01*
X127338Y44376D01*
X128640Y44770D01*
X129839Y45412D01*
X130891Y46275D01*
X131754Y47326D01*
X132395Y48526D01*
X132790Y49827D01*
X132874Y50681D01*
D02*
G37*
G36*
X121547D02*
X111221D01*
X111305Y49827D01*
X111699Y48526D01*
X112341Y47326D01*
X113204Y46275D01*
X114255Y45412D01*
X115455Y44770D01*
X116756Y44376D01*
X118110Y44242D01*
X121547D01*
Y50681D01*
D02*
G37*
G36*
X173728Y62018D02*
Y51681D01*
X184065D01*
X183970Y52882D01*
X183572Y54542D01*
X182919Y56119D01*
X182027Y57574D01*
X180919Y58872D01*
X179621Y59980D01*
X178166Y60872D01*
X176589Y61525D01*
X174930Y61923D01*
X173728Y62018D01*
D02*
G37*
G36*
X172728D02*
X171527Y61923D01*
X169868Y61525D01*
X168291Y60872D01*
X166836Y59980D01*
X165538Y58872D01*
X164429Y57574D01*
X163538Y56119D01*
X162885Y54542D01*
X162486Y52882D01*
X162392Y51681D01*
X172728D01*
Y62018D01*
D02*
G37*
G36*
X22648Y164854D02*
X12311D01*
Y154518D01*
X13512Y154612D01*
X15172Y155011D01*
X16749Y155664D01*
X18204Y156555D01*
X19502Y157664D01*
X20610Y158962D01*
X21502Y160417D01*
X22155Y161994D01*
X22553Y163653D01*
X22648Y164854D01*
D02*
G37*
G36*
X218138Y157071D02*
Y153650D01*
X221559D01*
X221489Y154182D01*
X221091Y155143D01*
X220457Y155969D01*
X219631Y156602D01*
X218670Y157001D01*
X218138Y157071D01*
D02*
G37*
G36*
X369104Y164854D02*
X358768D01*
Y154518D01*
X359969Y154612D01*
X361629Y155011D01*
X363205Y155664D01*
X364661Y156555D01*
X365958Y157664D01*
X367067Y158962D01*
X367958Y160417D01*
X368612Y161994D01*
X369010Y163653D01*
X369104Y164854D01*
D02*
G37*
G36*
X357768D02*
X347431D01*
X347526Y163653D01*
X347924Y161994D01*
X348577Y160417D01*
X349469Y158962D01*
X350577Y157664D01*
X351875Y156555D01*
X353330Y155664D01*
X354907Y155011D01*
X356566Y154612D01*
X357768Y154518D01*
Y164854D01*
D02*
G37*
G36*
X172728Y160917D02*
X162392D01*
X162486Y159716D01*
X162885Y158056D01*
X163538Y156480D01*
X164429Y155025D01*
X165538Y153727D01*
X166836Y152618D01*
X168291Y151727D01*
X169868Y151074D01*
X171527Y150675D01*
X172728Y150581D01*
Y160917D01*
D02*
G37*
G36*
X217138Y152650D02*
X213717D01*
X213787Y152118D01*
X214185Y151156D01*
X214819Y150330D01*
X215644Y149697D01*
X216606Y149299D01*
X217138Y149229D01*
Y152650D01*
D02*
G37*
G36*
Y157071D02*
X216606Y157001D01*
X215644Y156602D01*
X214819Y155969D01*
X214185Y155143D01*
X213787Y154182D01*
X213717Y153650D01*
X217138D01*
Y157071D01*
D02*
G37*
G36*
X184065Y160917D02*
X173728D01*
Y150581D01*
X174930Y150675D01*
X176589Y151074D01*
X178166Y151727D01*
X179621Y152618D01*
X180919Y153727D01*
X182027Y155025D01*
X182919Y156480D01*
X183572Y158056D01*
X183970Y159716D01*
X184065Y160917D01*
D02*
G37*
G36*
X269134Y163618D02*
X268055Y163476D01*
X267049Y163060D01*
X266186Y162397D01*
X265523Y161534D01*
X265106Y160528D01*
X264964Y159449D01*
X265106Y158370D01*
X265523Y157364D01*
X266186Y156500D01*
X267049Y155838D01*
X268055Y155421D01*
X269134Y155279D01*
X270213Y155421D01*
X271219Y155838D01*
X272082Y156500D01*
X272745Y157364D01*
X273161Y158370D01*
X273303Y159449D01*
X273161Y160528D01*
X272745Y161534D01*
X272082Y162397D01*
X271219Y163060D01*
X270213Y163476D01*
X269134Y163618D01*
D02*
G37*
G36*
X357768Y176191D02*
X356566Y176096D01*
X354907Y175698D01*
X353330Y175045D01*
X351875Y174153D01*
X350577Y173045D01*
X349469Y171747D01*
X348577Y170292D01*
X347924Y168715D01*
X347526Y167056D01*
X347431Y165854D01*
X357768D01*
Y176191D01*
D02*
G37*
G36*
X12311D02*
Y165854D01*
X22648D01*
X22553Y167056D01*
X22155Y168715D01*
X21502Y170292D01*
X20610Y171747D01*
X19502Y173045D01*
X18204Y174153D01*
X16749Y175045D01*
X15172Y175698D01*
X13512Y176096D01*
X12311Y176191D01*
D02*
G37*
G36*
X280315Y176792D02*
X279698Y176711D01*
X279124Y176473D01*
X278630Y176094D01*
X278252Y175601D01*
X278014Y175026D01*
X277932Y174409D01*
X278014Y173793D01*
X278252Y173218D01*
X278630Y172725D01*
X279124Y172346D01*
X279698Y172108D01*
X280315Y172027D01*
X280932Y172108D01*
X281506Y172346D01*
X282000Y172725D01*
X282378Y173218D01*
X282616Y173793D01*
X282698Y174409D01*
X282616Y175026D01*
X282378Y175601D01*
X282000Y176094D01*
X281506Y176473D01*
X280932Y176711D01*
X280315Y176792D01*
D02*
G37*
G36*
X358768Y176191D02*
Y165854D01*
X369104D01*
X369010Y167056D01*
X368612Y168715D01*
X367958Y170292D01*
X367067Y171747D01*
X365958Y173045D01*
X364661Y174153D01*
X363205Y175045D01*
X361629Y175698D01*
X359969Y176096D01*
X358768Y176191D01*
D02*
G37*
G36*
X326435Y162585D02*
X325818Y162504D01*
X325244Y162266D01*
X324750Y161887D01*
X324372Y161394D01*
X324134Y160819D01*
X324052Y160203D01*
X324134Y159586D01*
X324372Y159011D01*
X324750Y158518D01*
X325244Y158139D01*
X325818Y157901D01*
X326069Y157868D01*
X326102Y157617D01*
X326340Y157043D01*
X326719Y156549D01*
X327212Y156171D01*
X327787Y155933D01*
X328403Y155851D01*
X329020Y155933D01*
X329595Y156171D01*
X330088Y156549D01*
X330467Y157043D01*
X330705Y157617D01*
X330786Y158234D01*
X330705Y158851D01*
X330467Y159425D01*
X330088Y159919D01*
X329595Y160297D01*
X329020Y160535D01*
X328769Y160568D01*
X328736Y160819D01*
X328498Y161394D01*
X328120Y161887D01*
X327626Y162266D01*
X327052Y162504D01*
X326435Y162585D01*
D02*
G37*
G36*
X283268Y163583D02*
X275000D01*
Y155315D01*
X283268D01*
Y163583D01*
D02*
G37*
G36*
X173728Y172254D02*
Y161917D01*
X184065D01*
X183970Y163119D01*
X183572Y164778D01*
X182919Y166355D01*
X182027Y167810D01*
X180919Y169108D01*
X179621Y170216D01*
X178166Y171108D01*
X176589Y171761D01*
X174930Y172160D01*
X173728Y172254D01*
D02*
G37*
G36*
X172728D02*
X171527Y172160D01*
X169868Y171761D01*
X168291Y171108D01*
X166836Y170216D01*
X165538Y169108D01*
X164429Y167810D01*
X163538Y166355D01*
X162885Y164778D01*
X162486Y163119D01*
X162392Y161917D01*
X172728D01*
Y172254D01*
D02*
G37*
G36*
X221559Y152650D02*
X218138D01*
Y149229D01*
X218670Y149299D01*
X219631Y149697D01*
X220457Y150330D01*
X221091Y151156D01*
X221489Y152118D01*
X221559Y152650D01*
D02*
G37*
G36*
X25591Y177165D02*
X25591Y133858D01*
X29645Y129804D01*
X29022Y128640D01*
X28627Y127338D01*
X28543Y126484D01*
X39370D01*
X50197D01*
X50130Y127165D01*
X50592Y127953D01*
X55707D01*
X56169Y127165D01*
X56102Y126484D01*
X66929D01*
X77756D01*
X77689Y127165D01*
X78151Y127953D01*
X83266Y127953D01*
X83729Y127165D01*
X83662Y126484D01*
X94488D01*
X105315D01*
X105248Y127165D01*
X105710Y127953D01*
X110825D01*
X111288Y127165D01*
X111221Y126484D01*
X122047D01*
X132874D01*
X132790Y127338D01*
X132437Y128500D01*
X139764Y135827D01*
Y177165D01*
X25591Y177165D01*
D02*
G37*
G36*
X12311Y134852D02*
Y124516D01*
X22648D01*
X22553Y125717D01*
X22155Y127377D01*
X21502Y128953D01*
X20610Y130409D01*
X19502Y131706D01*
X18204Y132815D01*
X16749Y133706D01*
X15172Y134360D01*
X13512Y134758D01*
X12311Y134852D01*
D02*
G37*
G36*
X269488Y138800D02*
X268871Y138719D01*
X268297Y138481D01*
X267804Y138102D01*
X267425Y137609D01*
X267187Y137034D01*
X267106Y136417D01*
X267187Y135801D01*
X267425Y135226D01*
X267804Y134733D01*
X268297Y134354D01*
X268871Y134116D01*
X269488Y134035D01*
X270105Y134116D01*
X270679Y134354D01*
X271173Y134733D01*
X271552Y135226D01*
X271790Y135801D01*
X271871Y136417D01*
X271790Y137034D01*
X271552Y137609D01*
X271173Y138102D01*
X270679Y138481D01*
X270105Y138719D01*
X269488Y138800D01*
D02*
G37*
G36*
X285236Y138406D02*
X284620Y138325D01*
X284045Y138087D01*
X283552Y137708D01*
X283173Y137215D01*
X282935Y136640D01*
X282854Y136024D01*
X282935Y135407D01*
X283173Y134832D01*
X283552Y134339D01*
X284045Y133960D01*
X284620Y133722D01*
X285236Y133641D01*
X285853Y133722D01*
X286427Y133960D01*
X286921Y134339D01*
X287300Y134832D01*
X287538Y135407D01*
X287619Y136024D01*
X287538Y136640D01*
X287300Y137215D01*
X286921Y137708D01*
X286427Y138087D01*
X285853Y138325D01*
X285236Y138406D01*
D02*
G37*
G36*
X121547Y125484D02*
X111221D01*
X111305Y124630D01*
X111699Y123329D01*
X112341Y122129D01*
X113204Y121078D01*
X114255Y120215D01*
X115455Y119573D01*
X116756Y119179D01*
X118110Y119045D01*
X121547D01*
Y125484D01*
D02*
G37*
G36*
X105315Y125484D02*
X94988D01*
Y119045D01*
X98425D01*
X99779Y119179D01*
X101081Y119573D01*
X102280Y120215D01*
X103332Y121078D01*
X104195Y122129D01*
X104836Y123329D01*
X105231Y124630D01*
X105315Y125484D01*
D02*
G37*
G36*
X343701Y122658D02*
X343084Y122577D01*
X342510Y122339D01*
X342016Y121960D01*
X341637Y121467D01*
X341399Y120892D01*
X341318Y120276D01*
X341376Y119833D01*
X340989Y119404D01*
X340722Y119237D01*
X340158Y119312D01*
X339541Y119230D01*
X338966Y118992D01*
X338473Y118614D01*
X338094Y118120D01*
X337856Y117546D01*
X337775Y116929D01*
X337806Y116695D01*
X337445Y116310D01*
X337158Y116103D01*
X337129Y116094D01*
X336614Y116162D01*
X335998Y116081D01*
X335423Y115843D01*
X334929Y115464D01*
X334551Y114971D01*
X334313Y114396D01*
X334232Y113779D01*
X334262Y113546D01*
X333902Y113160D01*
X333615Y112953D01*
X333585Y112945D01*
X333071Y113013D01*
X332454Y112931D01*
X331880Y112693D01*
X331386Y112315D01*
X331008Y111821D01*
X330769Y111247D01*
X330688Y110630D01*
X330769Y110013D01*
X331008Y109439D01*
X331386Y108945D01*
X331880Y108566D01*
X332454Y108328D01*
X333071Y108247D01*
X333577Y108314D01*
X333687Y108328D01*
X334262Y108566D01*
Y108566D01*
X334262Y108566D01*
D01*
X334842Y108799D01*
X335423Y108566D01*
X335423D01*
Y108566D01*
X335423Y108566D01*
Y108566D01*
X335998Y108328D01*
X336108Y108314D01*
X336614Y108247D01*
X337120Y108314D01*
X337231Y108328D01*
X337806Y108566D01*
Y108566D01*
X337806Y108566D01*
D01*
X338386Y108799D01*
X338966Y108566D01*
X338966D01*
Y108566D01*
X338966Y108566D01*
Y108566D01*
X339541Y108328D01*
X339652Y108314D01*
X340158Y108247D01*
X340663Y108314D01*
X340774Y108328D01*
X341349Y108566D01*
Y108566D01*
X341349Y108566D01*
D01*
X341929Y108799D01*
X342510Y108566D01*
X342510D01*
Y108566D01*
X342510Y108566D01*
Y108566D01*
X343084Y108328D01*
X343195Y108314D01*
X343701Y108247D01*
X344318Y108328D01*
X344892Y108566D01*
X345386Y108945D01*
X345764Y109439D01*
X346002Y110013D01*
X346083Y110630D01*
X346002Y111247D01*
X345764Y111821D01*
X345470Y112205D01*
X345764Y112588D01*
X346002Y113163D01*
X346083Y113779D01*
X346002Y114396D01*
X345764Y114971D01*
X345470Y115354D01*
X345764Y115738D01*
X346002Y116312D01*
X346083Y116929D01*
X346002Y117546D01*
X345764Y118120D01*
X345394Y118602D01*
X345764Y119084D01*
X346002Y119659D01*
X346083Y120276D01*
X346002Y120892D01*
X345764Y121467D01*
X345386Y121960D01*
X344892Y122339D01*
X344318Y122577D01*
X343701Y122658D01*
D02*
G37*
G36*
X132874Y125484D02*
X122547D01*
Y119045D01*
X125984D01*
X127338Y119179D01*
X128640Y119573D01*
X129839Y120215D01*
X130891Y121078D01*
X131754Y122129D01*
X132395Y123329D01*
X132790Y124630D01*
X132874Y125484D01*
D02*
G37*
G36*
X357111Y146626D02*
X352018D01*
X346924D01*
X346960Y146351D01*
X347259Y145629D01*
X347735Y145009D01*
X348355Y144533D01*
X349077Y144234D01*
X349852Y144132D01*
X352086D01*
X352353Y143344D01*
X352231Y143251D01*
X351837Y142737D01*
X351589Y142138D01*
X351504Y141496D01*
X351589Y140854D01*
X351837Y140255D01*
X352231Y139741D01*
X352745Y139347D01*
X353344Y139099D01*
X353986Y139014D01*
X354629Y139099D01*
X355227Y139347D01*
X355741Y139741D01*
X356136Y140255D01*
X356383Y140854D01*
X356468Y141496D01*
X356383Y142138D01*
X356136Y142737D01*
X355741Y143251D01*
X355356Y143546D01*
X355325Y144057D01*
X355411Y144422D01*
X355680Y144533D01*
X356300Y145009D01*
X356776Y145629D01*
X357075Y146351D01*
X357111Y146626D01*
D02*
G37*
G36*
X193307Y151005D02*
X192690Y150924D01*
X192116Y150685D01*
X191622Y150307D01*
X191244Y149813D01*
X191006Y149239D01*
X190925Y148622D01*
X191006Y148005D01*
X191244Y147431D01*
X191622Y146937D01*
X192116Y146559D01*
X192690Y146321D01*
X193307Y146239D01*
X193924Y146321D01*
X194498Y146559D01*
X194992Y146937D01*
X195370Y147431D01*
X195608Y148005D01*
X195690Y148622D01*
X195608Y149239D01*
X195370Y149813D01*
X194992Y150307D01*
X194498Y150685D01*
X193924Y150924D01*
X193307Y151005D01*
D02*
G37*
G36*
X367856Y150120D02*
X366781D01*
X366007Y150018D01*
X365284Y149719D01*
X364664Y149243D01*
X364189Y148623D01*
X363889Y147901D01*
X363853Y147626D01*
X367856D01*
Y150120D01*
D02*
G37*
G36*
X351518D02*
X349852D01*
X349077Y150018D01*
X348355Y149719D01*
X347735Y149243D01*
X347259Y148623D01*
X346960Y147901D01*
X346924Y147626D01*
X351518D01*
Y150120D01*
D02*
G37*
G36*
X354183D02*
X352518D01*
Y147626D01*
X357111D01*
X357075Y147901D01*
X356776Y148623D01*
X356300Y149243D01*
X355680Y149719D01*
X354958Y150018D01*
X354183Y150120D01*
D02*
G37*
G36*
X367856Y146626D02*
X363853D01*
X363889Y146351D01*
X364189Y145629D01*
X364664Y145009D01*
X365284Y144533D01*
X366007Y144234D01*
X366781Y144132D01*
X367856D01*
Y146626D01*
D02*
G37*
G36*
X340945Y146083D02*
X340328Y146002D01*
X339754Y145764D01*
X339260Y145386D01*
X339247Y145393D01*
X338593Y145764D01*
X338593Y145764D01*
Y145764D01*
Y145764D01*
X338593Y145764D01*
X338018Y146002D01*
X337907Y146017D01*
X337402Y146083D01*
X336785Y146002D01*
X336210Y145764D01*
X335717Y145386D01*
X335338Y144892D01*
X335100Y144317D01*
X335019Y143701D01*
X335100Y143084D01*
X335338Y142509D01*
X335717Y142016D01*
X336210Y141637D01*
X336785Y141399D01*
X337402Y141318D01*
X337916Y141386D01*
X337945Y141377D01*
X338233Y141170D01*
X338593Y140785D01*
X338562Y140551D01*
X338644Y139935D01*
X338881Y139360D01*
X339260Y138866D01*
X339754Y138488D01*
X340328Y138250D01*
X340945Y138169D01*
X341459Y138236D01*
X341489Y138227D01*
X341776Y138021D01*
X342136Y137636D01*
X342106Y137402D01*
X342187Y136785D01*
X342425Y136210D01*
X342804Y135717D01*
X343297Y135338D01*
X343871Y135100D01*
X344488Y135019D01*
X345105Y135100D01*
X345679Y135338D01*
X346173Y135717D01*
X346552Y136210D01*
X346790Y136785D01*
X346871Y137402D01*
X346790Y138018D01*
X346552Y138593D01*
X346257Y138976D01*
X346552Y139360D01*
X346790Y139935D01*
X346871Y140551D01*
X346790Y141168D01*
X346552Y141743D01*
X346257Y142126D01*
X346552Y142509D01*
X346790Y143084D01*
X346871Y143701D01*
X346790Y144317D01*
X346552Y144892D01*
X346173Y145386D01*
X345679Y145764D01*
X345105Y146002D01*
X344488Y146083D01*
X343982Y146017D01*
X343871Y146002D01*
X343297Y145764D01*
X343297Y145764D01*
X343297Y145764D01*
Y145764D01*
X342630Y145386D01*
X342136Y145764D01*
X341562Y146002D01*
X340945Y146083D01*
D02*
G37*
G36*
X249606Y164594D02*
X248784Y164486D01*
X248018Y164169D01*
X247360Y163664D01*
X246855Y163006D01*
X246538Y162240D01*
X246429Y161417D01*
X246538Y160595D01*
X246686Y160236D01*
X246206Y159449D01*
X222441D01*
Y147638D01*
X254954D01*
X255123Y147231D01*
X255628Y146573D01*
X256286Y146068D01*
X257052Y145750D01*
X257874Y145642D01*
X258696Y145750D01*
X259462Y146068D01*
X260120Y146573D01*
X260625Y147231D01*
X260943Y147997D01*
X261051Y148819D01*
X260943Y149641D01*
X260625Y150407D01*
X260120Y151065D01*
X259881Y151249D01*
Y157480D01*
X259754Y158121D01*
X259728Y158248D01*
X259293Y158899D01*
X255356Y162837D01*
X254705Y163272D01*
X253937Y163424D01*
X252036D01*
X251853Y163664D01*
X251195Y164169D01*
X250429Y164486D01*
X249606Y164594D01*
D02*
G37*
%LPD*%
G36*
X311839Y123201D02*
X311913Y123021D01*
X312292Y122528D01*
Y121567D01*
X311913Y121073D01*
X311675Y120499D01*
X311594Y119882D01*
X311675Y119265D01*
X311913Y118691D01*
X312292Y118197D01*
X312785Y117818D01*
X313360Y117580D01*
X313976Y117499D01*
X314593Y117580D01*
X315168Y117818D01*
X315661Y118197D01*
X316411Y118112D01*
X316929Y117638D01*
X316929Y96457D01*
X312992Y92520D01*
X309055Y92520D01*
X305167Y95630D01*
X305254Y95840D01*
X305335Y96457D01*
X305254Y97073D01*
X305016Y97648D01*
X304638Y98141D01*
X304144Y98520D01*
X303569Y98758D01*
X302953Y98839D01*
X302336Y98758D01*
X301761Y98520D01*
X301656Y98439D01*
X299213Y100394D01*
X293669Y100394D01*
X293640Y100617D01*
X293402Y101191D01*
X293023Y101685D01*
X292530Y102063D01*
X291955Y102301D01*
X291339Y102383D01*
X290722Y102301D01*
X290147Y102063D01*
X289654Y101685D01*
X289275Y101191D01*
X289037Y100617D01*
X289008Y100394D01*
X250000Y100394D01*
X246063Y104331D01*
X246063Y110236D01*
X250000Y114173D01*
X270520D01*
X270670Y113863D01*
X270732Y113386D01*
X270362Y113102D01*
X269984Y112609D01*
X269746Y112034D01*
X269665Y111417D01*
X269746Y110801D01*
X269984Y110226D01*
X270362Y109733D01*
X270856Y109354D01*
X271431Y109116D01*
X272047Y109035D01*
X272664Y109116D01*
X273238Y109354D01*
X273732Y109733D01*
X274111Y110226D01*
X274349Y110801D01*
X274430Y111417D01*
X274349Y112034D01*
X274111Y112609D01*
X273732Y113102D01*
X273362Y113386D01*
X273424Y113863D01*
X273575Y114173D01*
X275457D01*
X275580Y114078D01*
X276155Y113840D01*
X276772Y113759D01*
X277388Y113840D01*
X277963Y114078D01*
X278087Y114173D01*
X279969D01*
X280119Y113863D01*
X280181Y113386D01*
X279811Y113102D01*
X279433Y112609D01*
X279195Y112034D01*
X279114Y111417D01*
X279195Y110801D01*
X279433Y110226D01*
X279811Y109733D01*
X280305Y109354D01*
X280879Y109116D01*
X281496Y109035D01*
X282113Y109116D01*
X282687Y109354D01*
X283181Y109733D01*
X283559Y110226D01*
X283798Y110801D01*
X283879Y111417D01*
X283798Y112034D01*
X283559Y112609D01*
X283181Y113102D01*
X282811Y113386D01*
X282873Y113863D01*
X283024Y114173D01*
X293307D01*
X302651Y123517D01*
X311522D01*
X311839Y123201D01*
D02*
G37*
D38*
X130394Y25669D02*
X220394D01*
Y11575D02*
Y25669D01*
X41260D02*
X130394D01*
X40394Y24803D02*
X41260Y25669D01*
X40394Y11575D02*
Y24803D01*
X130394Y11575D02*
Y25669D01*
Y31969D01*
X11811Y51181D02*
X39370D01*
X66929D01*
X94488D01*
X122047D01*
X173228D01*
X11811Y124016D02*
X37402D01*
X39370Y125984D01*
X142520D02*
X157874Y141339D01*
X39370Y125984D02*
X66929D01*
X94488D01*
X122047D01*
X142520D01*
D39*
X249606Y161417D02*
X253937D01*
X257874Y157480D01*
Y148819D02*
Y157480D01*
D40*
X358268Y76772D02*
Y96457D01*
D41*
X11811Y124016D02*
X25591Y110236D01*
Y80709D02*
Y110236D01*
X11811Y51181D02*
Y66929D01*
X25591Y80709D01*
D43*
X387137Y22308D02*
X385825Y23619D01*
X383202D01*
X381890Y22308D01*
Y17060D01*
X383202Y15748D01*
X385825D01*
X387137Y17060D01*
Y19684D01*
X384514D01*
X389761Y23619D02*
Y15748D01*
X393697D01*
X395009Y17060D01*
Y18372D01*
X393697Y19684D01*
X389761D01*
X393697D01*
X395009Y20996D01*
Y22308D01*
X393697Y23619D01*
X389761D01*
X397633D02*
Y15748D01*
X402880D01*
X405504Y20996D02*
X406816D01*
Y19684D01*
X405504D01*
Y20996D01*
Y17060D02*
X406816D01*
Y15748D01*
X405504D01*
Y17060D01*
X425183Y22308D02*
X423871Y23619D01*
X421247D01*
X419935Y22308D01*
Y17060D01*
X421247Y15748D01*
X423871D01*
X425183Y17060D01*
X429119Y15748D02*
X431742D01*
X433054Y17060D01*
Y19684D01*
X431742Y20996D01*
X429119D01*
X427807Y19684D01*
Y17060D01*
X429119Y15748D01*
X435678Y13124D02*
Y20996D01*
X439614D01*
X440926Y19684D01*
Y17060D01*
X439614Y15748D01*
X435678D01*
X443550Y13124D02*
Y20996D01*
X447485D01*
X448797Y19684D01*
Y17060D01*
X447485Y15748D01*
X443550D01*
X455357D02*
X452733D01*
X451421Y17060D01*
Y19684D01*
X452733Y20996D01*
X455357D01*
X456669Y19684D01*
Y18372D01*
X451421D01*
X459293Y20996D02*
Y15748D01*
Y18372D01*
X460605Y19684D01*
X461916Y20996D01*
X463228D01*
X478971Y15748D02*
Y23619D01*
X475036Y19684D01*
X480283D01*
D53*
X200472Y11417D02*
D03*
X220472D02*
D03*
X110315D02*
D03*
X130315D02*
D03*
X20551D02*
D03*
X40551D02*
D03*
D54*
X240472D02*
D03*
X150315D02*
D03*
X60551D02*
D03*
D55*
X235433Y109449D02*
D03*
X279134Y159449D02*
D03*
X247638Y153150D02*
D03*
D56*
X225433Y109449D02*
D03*
X269134Y159449D02*
D03*
X237638Y153150D02*
D03*
X227638D02*
D03*
X217638D02*
D03*
D57*
X358268Y15748D02*
D03*
Y76772D02*
D03*
X11811Y124016D02*
D03*
X328740Y70866D02*
D03*
X11811Y165354D02*
D03*
X358268D02*
D03*
X11811Y51181D02*
D03*
X173228D02*
D03*
Y161417D02*
D03*
D58*
X358268Y47244D02*
D03*
X11811Y94488D02*
D03*
D59*
X299213Y70866D02*
D03*
D60*
X122047Y145669D02*
D03*
Y125984D02*
D03*
X94488D02*
D03*
Y145669D02*
D03*
X66929D02*
D03*
Y125984D02*
D03*
X39370D02*
D03*
Y145669D02*
D03*
X94488Y70866D02*
D03*
Y51181D02*
D03*
X66929D02*
D03*
Y70866D02*
D03*
X39370D02*
D03*
Y51181D02*
D03*
X122047D02*
D03*
Y70866D02*
D03*
D61*
Y165354D02*
D03*
X94488D02*
D03*
X66929D02*
D03*
X39370D02*
D03*
X94488Y90551D02*
D03*
X66929D02*
D03*
X39370D02*
D03*
X122047D02*
D03*
D62*
X368356Y147126D02*
D03*
Y113110D02*
D03*
D63*
X352018Y147126D02*
D03*
Y113110D02*
D03*
D64*
X249213Y64173D02*
D03*
D65*
X281496Y53150D02*
D03*
X188976Y23622D02*
D03*
X281496Y41339D02*
D03*
Y27559D02*
D03*
Y13780D02*
D03*
X267717D02*
D03*
X251969Y23622D02*
D03*
X236221D02*
D03*
X220472D02*
D03*
X173228D02*
D03*
X157480D02*
D03*
X110236D02*
D03*
X94488D02*
D03*
X78740D02*
D03*
X62992D02*
D03*
X47244D02*
D03*
X17717D02*
D03*
X7874Y33465D02*
D03*
X368110Y90551D02*
D03*
X346457Y177165D02*
D03*
X338583Y181102D02*
D03*
X322835D02*
D03*
X307087D02*
D03*
X291339D02*
D03*
X275590D02*
D03*
X259842D02*
D03*
X244094D02*
D03*
X228346D02*
D03*
X212598D02*
D03*
X196850D02*
D03*
X181102D02*
D03*
X165354D02*
D03*
X149606D02*
D03*
X133858D02*
D03*
X118110D02*
D03*
X102362D02*
D03*
X86614D02*
D03*
X70866D02*
D03*
X55118D02*
D03*
X39370D02*
D03*
X23622D02*
D03*
X13386Y180709D02*
D03*
X244882Y37795D02*
D03*
X248425Y41732D02*
D03*
X252362Y38189D02*
D03*
X255118Y42913D02*
D03*
X259055Y39370D02*
D03*
X255118Y50000D02*
D03*
X259055Y46457D02*
D03*
Y53543D02*
D03*
X212598Y119291D02*
D03*
X257874Y148819D02*
D03*
X249606Y161417D02*
D03*
X196063Y129921D02*
D03*
Y143307D02*
D03*
X184252Y123622D02*
D03*
X179134Y144882D02*
D03*
X314961Y89370D02*
D03*
X340158Y157480D02*
D03*
X338189Y171653D02*
D03*
D66*
X280315Y174409D02*
D03*
X138583Y89764D02*
D03*
Y102362D02*
D03*
X287795Y143701D02*
D03*
X274803Y72835D02*
D03*
X224803Y74803D02*
D03*
X255118D02*
D03*
X266535Y91339D02*
D03*
X190945Y162205D02*
D03*
X206890D02*
D03*
X192520Y85039D02*
D03*
X205906Y88189D02*
D03*
X284252Y72441D02*
D03*
X335039Y153543D02*
D03*
X271654Y19291D02*
D03*
X268504D02*
D03*
X265354D02*
D03*
X271654Y22835D02*
D03*
X268504D02*
D03*
X265354D02*
D03*
X225197Y116142D02*
D03*
X218110Y123228D02*
D03*
X218701Y140748D02*
D03*
X251969Y140551D02*
D03*
Y130315D02*
D03*
X239764Y141339D02*
D03*
X229921D02*
D03*
X218110Y132283D02*
D03*
X233858Y116142D02*
D03*
X240945D02*
D03*
X241732Y112205D02*
D03*
X331918Y127249D02*
D03*
X334145Y125022D02*
D03*
X313976Y124213D02*
D03*
X316446Y162655D02*
D03*
X318414Y164624D02*
D03*
X236417Y162008D02*
D03*
X220276Y162008D02*
D03*
X344488Y137402D02*
D03*
Y140551D02*
D03*
Y143701D02*
D03*
X340945Y143701D02*
D03*
Y140551D02*
D03*
X337402Y143701D02*
D03*
X359449Y94095D02*
D03*
X308268Y86221D02*
D03*
X299213D02*
D03*
X336614Y113779D02*
D03*
Y110630D02*
D03*
X340158D02*
D03*
Y113779D02*
D03*
Y116929D02*
D03*
X343701D02*
D03*
Y113779D02*
D03*
Y110630D02*
D03*
Y120276D02*
D03*
X333071Y110630D02*
D03*
X197638Y123721D02*
D03*
X194488D02*
D03*
X236614Y54725D02*
D03*
Y51181D02*
D03*
X239764D02*
D03*
Y54725D02*
D03*
X196063Y93307D02*
D03*
X175984Y84646D02*
D03*
X179134D02*
D03*
X187008Y91339D02*
D03*
Y88189D02*
D03*
X157874Y144882D02*
D03*
Y141339D02*
D03*
X161811Y144882D02*
D03*
Y141339D02*
D03*
X328403Y158234D02*
D03*
X326435Y160203D02*
D03*
X313976Y119882D02*
D03*
X272047Y143898D02*
D03*
Y120866D02*
D03*
X281496D02*
D03*
Y111417D02*
D03*
X272047D02*
D03*
X276772Y116142D02*
D03*
X251575Y117717D02*
D03*
X248425Y107480D02*
D03*
X242913Y108661D02*
D03*
X306496Y121850D02*
D03*
X306693Y126378D02*
D03*
X193307Y148622D02*
D03*
X285236Y136024D02*
D03*
X269488Y136417D02*
D03*
X289173Y96653D02*
D03*
X291339Y100000D02*
D03*
X292913Y88976D02*
D03*
X286614D02*
D03*
X302953Y96457D02*
D03*
X312402D02*
D03*
X274016Y92520D02*
D03*
X244882Y59842D02*
D03*
X242913Y64173D02*
D03*
Y67323D02*
D03*
M02*
