G04*
G04 #@! TF.GenerationSoftware,Altium Limited,CircuitStudio,1.5.2 (30)*
G04*
G04 Layer_Color=20142*
%FSLAX25Y25*%
%MOIN*%
G70*
G01*
G75*
%ADD78R,0.10394X0.06457*%
%ADD79R,0.28110X0.28110*%
%ADD80R,0.04882X0.02520*%
%ADD81R,0.06850X0.04685*%
%ADD82P,0.06347X4X270.0*%
%ADD83R,0.04488X0.04488*%
%ADD84P,0.06347X4X180.0*%
%ADD85R,0.04488X0.04488*%
%ADD86R,0.03307X0.02913*%
%ADD87R,0.02913X0.03307*%
G04:AMPARAMS|DCode=88|XSize=33.07mil|YSize=29.13mil|CornerRadius=0mil|HoleSize=0mil|Usage=FLASHONLY|Rotation=225.000|XOffset=0mil|YOffset=0mil|HoleType=Round|Shape=Rectangle|*
%AMROTATEDRECTD88*
4,1,4,0.00139,0.02199,0.02199,0.00139,-0.00139,-0.02199,-0.02199,-0.00139,0.00139,0.02199,0.0*
%
%ADD88ROTATEDRECTD88*%

G04:AMPARAMS|DCode=89|XSize=29.13mil|YSize=76.38mil|CornerRadius=0mil|HoleSize=0mil|Usage=FLASHONLY|Rotation=225.000|XOffset=0mil|YOffset=0mil|HoleType=Round|Shape=Rectangle|*
%AMROTATEDRECTD89*
4,1,4,-0.01670,0.03730,0.03730,-0.01670,0.01670,-0.03730,-0.03730,0.01670,-0.01670,0.03730,0.0*
%
%ADD89ROTATEDRECTD89*%

G04:AMPARAMS|DCode=90|XSize=55.91mil|YSize=28.35mil|CornerRadius=0mil|HoleSize=0mil|Usage=FLASHONLY|Rotation=45.000|XOffset=0mil|YOffset=0mil|HoleType=Round|Shape=Rectangle|*
%AMROTATEDRECTD90*
4,1,4,-0.00974,-0.02979,-0.02979,-0.00974,0.00974,0.02979,0.02979,0.00974,-0.00974,-0.02979,0.0*
%
%ADD90ROTATEDRECTD90*%

%ADD91R,0.04843X0.02677*%
%ADD92R,0.04843X0.01496*%
%ADD93R,0.13386X0.13386*%
%ADD94R,0.01102X0.04252*%
%ADD95R,0.04252X0.01102*%
%ADD96R,0.08189X0.01969*%
%ADD97R,0.07559X0.05591*%
%ADD98R,0.06850X0.07638*%
%ADD99R,0.08425X0.08425*%
%ADD100R,0.08425X0.08425*%
%ADD101R,0.05276X0.04488*%
%ADD102R,0.10394X0.06850*%
%ADD103R,0.04488X0.05276*%
%ADD104C,0.12362*%
%ADD105R,0.12362X0.12362*%
%ADD106R,0.06457X0.06457*%
%ADD107C,0.06457*%
%ADD108C,0.20472*%
%ADD109R,0.20472X0.20472*%
%ADD110R,0.20472X0.20472*%
%ADD111O,0.20472X0.12598*%
%ADD112R,0.20472X0.12598*%
%ADD113O,0.07402X0.04252*%
%ADD114O,0.08583X0.04252*%
%ADD115R,0.00315X0.00315*%
%ADD116C,0.08425*%
%ADD117C,0.02913*%
D78*
X227362Y43780D02*
D03*
Y61890D02*
D03*
D79*
X200197Y52835D02*
D03*
D80*
X228346Y162599D02*
D03*
X198819Y162598D02*
D03*
D81*
X220276Y166142D02*
D03*
X236417D02*
D03*
Y172441D02*
D03*
X220276D02*
D03*
X190748Y166142D02*
D03*
X206890D02*
D03*
Y172441D02*
D03*
X190748D02*
D03*
D82*
X160101Y89235D02*
D03*
X155647Y84781D02*
D03*
X155770Y96322D02*
D03*
X151316Y91867D02*
D03*
X156164Y106558D02*
D03*
X151710Y102104D02*
D03*
X154589Y115613D02*
D03*
X150135Y111159D02*
D03*
X167975Y87266D02*
D03*
X163521Y82812D02*
D03*
D83*
X155905Y123228D02*
D03*
X149606D02*
D03*
X199606Y152756D02*
D03*
X193307D02*
D03*
X308661Y112598D02*
D03*
X302362D02*
D03*
X308661Y106299D02*
D03*
X302362D02*
D03*
X182283Y89764D02*
D03*
X175984D02*
D03*
X280315Y170866D02*
D03*
X286614D02*
D03*
X228346Y120866D02*
D03*
X234646D02*
D03*
X251575Y74803D02*
D03*
X245276D02*
D03*
X341339Y149606D02*
D03*
X335039D02*
D03*
X240945Y120866D02*
D03*
X247244D02*
D03*
X271260Y72835D02*
D03*
X264961D02*
D03*
X228346Y74803D02*
D03*
X234646D02*
D03*
D84*
X164825Y126119D02*
D03*
X160371Y130574D02*
D03*
X324668Y156434D02*
D03*
X320214Y160889D02*
D03*
D85*
X173228Y125591D02*
D03*
Y131890D02*
D03*
X209449Y142913D02*
D03*
Y136614D02*
D03*
Y128740D02*
D03*
Y122441D02*
D03*
X308268Y90158D02*
D03*
Y96457D02*
D03*
X238583Y59055D02*
D03*
Y65354D02*
D03*
Y46850D02*
D03*
Y40551D02*
D03*
X247244Y136614D02*
D03*
Y130315D02*
D03*
X280709Y72441D02*
D03*
Y78740D02*
D03*
X205906Y84646D02*
D03*
Y78347D02*
D03*
X359449Y103937D02*
D03*
Y97638D02*
D03*
X272835Y174016D02*
D03*
Y167717D02*
D03*
X299213Y90158D02*
D03*
Y96457D02*
D03*
X196850Y84646D02*
D03*
Y78347D02*
D03*
D86*
X245866Y110630D02*
D03*
X250197D02*
D03*
X245866Y115354D02*
D03*
X250197D02*
D03*
D87*
X303543Y126181D02*
D03*
Y121850D02*
D03*
X287795Y140354D02*
D03*
Y136024D02*
D03*
X272047Y140748D02*
D03*
Y136417D02*
D03*
X286614Y92323D02*
D03*
Y96653D02*
D03*
X310630Y124213D02*
D03*
Y119882D02*
D03*
X292913Y92323D02*
D03*
Y96653D02*
D03*
D88*
X269729Y92170D02*
D03*
X272791Y95232D02*
D03*
D89*
X314004Y136413D02*
D03*
X317540Y139948D02*
D03*
X321076Y143484D02*
D03*
X324611Y147019D02*
D03*
X305681Y165950D02*
D03*
X302145Y162414D02*
D03*
X298609Y158879D02*
D03*
X295074Y155343D02*
D03*
D90*
X326907Y114722D02*
D03*
X321618Y120011D02*
D03*
X330108Y123213D02*
D03*
D91*
X349754Y142717D02*
D03*
Y139567D02*
D03*
Y120669D02*
D03*
Y117520D02*
D03*
D92*
Y135039D02*
D03*
Y133071D02*
D03*
Y131102D02*
D03*
Y137008D02*
D03*
Y123228D02*
D03*
Y129134D02*
D03*
Y127165D02*
D03*
Y125197D02*
D03*
D93*
X276772Y116142D02*
D03*
D94*
X287008Y129921D02*
D03*
X285433D02*
D03*
X283858D02*
D03*
X282283D02*
D03*
X280709D02*
D03*
X279134D02*
D03*
X277559D02*
D03*
X275984D02*
D03*
X274410D02*
D03*
X272835D02*
D03*
X271260D02*
D03*
X269685D02*
D03*
X268110D02*
D03*
X266535D02*
D03*
Y102362D02*
D03*
X268110D02*
D03*
X269685D02*
D03*
X271260D02*
D03*
X272835D02*
D03*
X274410D02*
D03*
X275984D02*
D03*
X277559D02*
D03*
X279134D02*
D03*
X280709D02*
D03*
X282283D02*
D03*
X283858D02*
D03*
X285433D02*
D03*
X287008D02*
D03*
D95*
X262992Y126378D02*
D03*
Y124803D02*
D03*
Y123228D02*
D03*
Y121653D02*
D03*
Y120079D02*
D03*
Y118504D02*
D03*
Y116929D02*
D03*
Y115354D02*
D03*
Y113779D02*
D03*
Y112205D02*
D03*
Y110630D02*
D03*
Y109055D02*
D03*
Y107480D02*
D03*
Y105905D02*
D03*
X290551D02*
D03*
Y107480D02*
D03*
Y109055D02*
D03*
Y110630D02*
D03*
Y112205D02*
D03*
Y113779D02*
D03*
Y115354D02*
D03*
Y116929D02*
D03*
Y118504D02*
D03*
Y120079D02*
D03*
Y121653D02*
D03*
Y123228D02*
D03*
Y124803D02*
D03*
Y126378D02*
D03*
D96*
X172441Y95964D02*
D03*
Y98524D02*
D03*
Y101083D02*
D03*
Y103642D02*
D03*
Y106201D02*
D03*
Y108760D02*
D03*
Y111319D02*
D03*
Y113878D02*
D03*
Y116437D02*
D03*
Y118996D02*
D03*
X196063D02*
D03*
Y116437D02*
D03*
Y113878D02*
D03*
Y111319D02*
D03*
Y108760D02*
D03*
Y106201D02*
D03*
Y103642D02*
D03*
Y101083D02*
D03*
Y98524D02*
D03*
Y95964D02*
D03*
D97*
X224803Y136417D02*
D03*
X238976D02*
D03*
Y127362D02*
D03*
X224803D02*
D03*
D98*
X249213Y170866D02*
D03*
X264961D02*
D03*
D99*
X331890Y100394D02*
D03*
X346850D02*
D03*
D100*
X148031Y158661D02*
D03*
Y143701D02*
D03*
D101*
X268110Y53150D02*
D03*
Y61024D02*
D03*
X247244Y47638D02*
D03*
Y55512D02*
D03*
D102*
X268110Y41339D02*
D03*
Y28740D02*
D03*
D103*
X10630Y144488D02*
D03*
X18504D02*
D03*
X10236Y72441D02*
D03*
X18110D02*
D03*
D104*
X200472Y11417D02*
D03*
X220472D02*
D03*
X110315D02*
D03*
X130315D02*
D03*
X20551D02*
D03*
X40551D02*
D03*
D105*
X240472D02*
D03*
X150315D02*
D03*
X60551D02*
D03*
D106*
X235433Y109449D02*
D03*
X279134Y159449D02*
D03*
X247638Y153150D02*
D03*
D107*
X225433Y109449D02*
D03*
X269134Y159449D02*
D03*
X237638Y153150D02*
D03*
X227638D02*
D03*
X217638D02*
D03*
D108*
X358268Y15748D02*
D03*
Y76772D02*
D03*
X11811Y124016D02*
D03*
X328740Y70866D02*
D03*
X11811Y165354D02*
D03*
X358268D02*
D03*
X11811Y51181D02*
D03*
X173228D02*
D03*
Y161417D02*
D03*
D109*
X358268Y47244D02*
D03*
X11811Y94488D02*
D03*
D110*
X299213Y70866D02*
D03*
D111*
X122047Y145669D02*
D03*
Y125984D02*
D03*
X94488D02*
D03*
Y145669D02*
D03*
X66929D02*
D03*
Y125984D02*
D03*
X39370D02*
D03*
Y145669D02*
D03*
X94488Y70866D02*
D03*
Y51181D02*
D03*
X66929D02*
D03*
Y70866D02*
D03*
X39370D02*
D03*
Y51181D02*
D03*
X122047D02*
D03*
Y70866D02*
D03*
D112*
Y165354D02*
D03*
X94488D02*
D03*
X66929D02*
D03*
X39370D02*
D03*
X94488Y90551D02*
D03*
X66929D02*
D03*
X39370D02*
D03*
X122047D02*
D03*
D113*
X368356Y147126D02*
D03*
Y113110D02*
D03*
D114*
X352018Y147126D02*
D03*
Y113110D02*
D03*
D115*
X353986Y118740D02*
D03*
Y141496D02*
D03*
D116*
X249213Y64173D02*
D03*
D117*
X272047Y120866D02*
D03*
X281496D02*
D03*
Y111417D02*
D03*
X272047D02*
D03*
X276772Y116142D02*
D03*
M02*
