G04*
G04 #@! TF.GenerationSoftware,Altium Limited,CircuitStudio,1.5.2 (30)*
G04*
G04 Layer_Color=7318015*
%FSLAX25Y25*%
%MOIN*%
G70*
G01*
G75*
%ADD12R,0.09843X0.05906*%
%ADD15R,0.06299X0.04134*%
%ADD16P,0.05568X4X270.0*%
%ADD17R,0.03937X0.03937*%
%ADD18P,0.05568X4X180.0*%
%ADD19R,0.03937X0.03937*%
%ADD20R,0.02756X0.02362*%
%ADD21R,0.02362X0.02756*%
G04:AMPARAMS|DCode=22|XSize=27.56mil|YSize=23.62mil|CornerRadius=0mil|HoleSize=0mil|Usage=FLASHONLY|Rotation=225.000|XOffset=0mil|YOffset=0mil|HoleType=Round|Shape=Rectangle|*
%AMROTATEDRECTD22*
4,1,4,0.00139,0.01810,0.01810,0.00139,-0.00139,-0.01810,-0.01810,-0.00139,0.00139,0.01810,0.0*
%
%ADD22ROTATEDRECTD22*%

G04:AMPARAMS|DCode=23|XSize=23.62mil|YSize=70.87mil|CornerRadius=0mil|HoleSize=0mil|Usage=FLASHONLY|Rotation=225.000|XOffset=0mil|YOffset=0mil|HoleType=Round|Shape=Rectangle|*
%AMROTATEDRECTD23*
4,1,4,-0.01670,0.03341,0.03341,-0.01670,0.01670,-0.03341,-0.03341,0.01670,-0.01670,0.03341,0.0*
%
%ADD23ROTATEDRECTD23*%

G04:AMPARAMS|DCode=24|XSize=51.18mil|YSize=23.62mil|CornerRadius=0mil|HoleSize=0mil|Usage=FLASHONLY|Rotation=45.000|XOffset=0mil|YOffset=0mil|HoleType=Round|Shape=Rectangle|*
%AMROTATEDRECTD24*
4,1,4,-0.00974,-0.02645,-0.02645,-0.00974,0.00974,0.02645,0.02645,0.00974,-0.00974,-0.02645,0.0*
%
%ADD24ROTATEDRECTD24*%

%ADD25R,0.04528X0.02362*%
%ADD26R,0.04528X0.01181*%
%ADD28R,0.00787X0.03937*%
%ADD29R,0.03937X0.00787*%
%ADD30R,0.07874X0.01654*%
%ADD31R,0.07087X0.05118*%
%ADD32R,0.06299X0.07087*%
%ADD33R,0.07874X0.07874*%
%ADD34R,0.07874X0.07874*%
%ADD35R,0.04724X0.03937*%
%ADD36R,0.09843X0.06299*%
%ADD37R,0.03937X0.04724*%
%ADD74R,0.10630X0.10630*%
%ADD75R,0.04724X0.04724*%
%ADD76R,0.04724X0.04724*%
%ADD77R,0.00000X0.00000*%
D12*
X227362Y43780D02*
D03*
Y61890D02*
D03*
D15*
X220276Y166142D02*
D03*
X236417D02*
D03*
Y172441D02*
D03*
X220276D02*
D03*
X190748Y166142D02*
D03*
X206890D02*
D03*
Y172441D02*
D03*
X190748D02*
D03*
D16*
X160101Y89235D02*
D03*
X155647Y84781D02*
D03*
X155770Y96322D02*
D03*
X151316Y91867D02*
D03*
X156164Y106558D02*
D03*
X151710Y102104D02*
D03*
X154589Y115613D02*
D03*
X150135Y111159D02*
D03*
X167975Y87266D02*
D03*
X163521Y82812D02*
D03*
D17*
X155905Y123228D02*
D03*
X149606D02*
D03*
X199606Y152756D02*
D03*
X193307D02*
D03*
X308661Y112598D02*
D03*
X302362D02*
D03*
X308661Y106299D02*
D03*
X302362D02*
D03*
X182283Y89764D02*
D03*
X175984D02*
D03*
X280315Y170866D02*
D03*
X286614D02*
D03*
X228346Y120866D02*
D03*
X234646D02*
D03*
X251575Y74803D02*
D03*
X245276D02*
D03*
X341339Y149606D02*
D03*
X335039D02*
D03*
X240945Y120866D02*
D03*
X247244D02*
D03*
X271260Y72835D02*
D03*
X264961D02*
D03*
X228346Y74803D02*
D03*
X234646D02*
D03*
D18*
X164825Y126119D02*
D03*
X160371Y130574D02*
D03*
X324668Y156434D02*
D03*
X320214Y160889D02*
D03*
D19*
X173228Y125591D02*
D03*
Y131890D02*
D03*
X209449Y142913D02*
D03*
Y136614D02*
D03*
Y128740D02*
D03*
Y122441D02*
D03*
X308268Y90158D02*
D03*
Y96457D02*
D03*
X238583Y59055D02*
D03*
Y65354D02*
D03*
Y46850D02*
D03*
Y40551D02*
D03*
X247244Y136614D02*
D03*
Y130315D02*
D03*
X280709Y72441D02*
D03*
Y78740D02*
D03*
X205906Y84646D02*
D03*
Y78347D02*
D03*
X359449Y103937D02*
D03*
Y97638D02*
D03*
X272835Y174016D02*
D03*
Y167717D02*
D03*
X299213Y90158D02*
D03*
Y96457D02*
D03*
X196850Y84646D02*
D03*
Y78347D02*
D03*
D20*
X245866Y110630D02*
D03*
X250197D02*
D03*
X245866Y115354D02*
D03*
X250197D02*
D03*
D21*
X303543Y126181D02*
D03*
Y121850D02*
D03*
X287795Y140354D02*
D03*
Y136024D02*
D03*
X272047Y140748D02*
D03*
Y136417D02*
D03*
X286614Y92323D02*
D03*
Y96653D02*
D03*
X310630Y124213D02*
D03*
Y119882D02*
D03*
X292913Y92323D02*
D03*
Y96653D02*
D03*
D22*
X269729Y92170D02*
D03*
X272791Y95232D02*
D03*
D23*
X314004Y136413D02*
D03*
X317540Y139948D02*
D03*
X321076Y143484D02*
D03*
X324611Y147019D02*
D03*
X305681Y165950D02*
D03*
X302145Y162414D02*
D03*
X298609Y158879D02*
D03*
X295074Y155343D02*
D03*
D24*
X326907Y114722D02*
D03*
X321618Y120011D02*
D03*
X330108Y123213D02*
D03*
D25*
X349754Y142717D02*
D03*
Y139567D02*
D03*
Y120669D02*
D03*
Y117520D02*
D03*
D26*
Y135039D02*
D03*
Y133071D02*
D03*
Y131102D02*
D03*
Y137008D02*
D03*
Y123228D02*
D03*
Y129134D02*
D03*
Y127165D02*
D03*
Y125197D02*
D03*
D28*
X287008Y129921D02*
D03*
X285433D02*
D03*
X283858D02*
D03*
X282283D02*
D03*
X280709D02*
D03*
X279134D02*
D03*
X277559D02*
D03*
X275984D02*
D03*
X274410D02*
D03*
X272835D02*
D03*
X271260D02*
D03*
X269685D02*
D03*
X268110D02*
D03*
X266535D02*
D03*
Y102362D02*
D03*
X268110D02*
D03*
X269685D02*
D03*
X271260D02*
D03*
X272835D02*
D03*
X274410D02*
D03*
X275984D02*
D03*
X277559D02*
D03*
X279134D02*
D03*
X280709D02*
D03*
X282283D02*
D03*
X283858D02*
D03*
X285433D02*
D03*
X287008D02*
D03*
D29*
X262992Y126378D02*
D03*
Y124803D02*
D03*
Y123228D02*
D03*
Y121653D02*
D03*
Y120079D02*
D03*
Y118504D02*
D03*
Y116929D02*
D03*
Y115354D02*
D03*
Y113779D02*
D03*
Y112205D02*
D03*
Y110630D02*
D03*
Y109055D02*
D03*
Y107480D02*
D03*
Y105905D02*
D03*
X290551D02*
D03*
Y107480D02*
D03*
Y109055D02*
D03*
Y110630D02*
D03*
Y112205D02*
D03*
Y113779D02*
D03*
Y115354D02*
D03*
Y116929D02*
D03*
Y118504D02*
D03*
Y120079D02*
D03*
Y121653D02*
D03*
Y123228D02*
D03*
Y124803D02*
D03*
Y126378D02*
D03*
D30*
X172441Y95964D02*
D03*
Y98524D02*
D03*
Y101083D02*
D03*
Y103642D02*
D03*
Y106201D02*
D03*
Y108760D02*
D03*
Y111319D02*
D03*
Y113878D02*
D03*
Y116437D02*
D03*
Y118996D02*
D03*
X196063D02*
D03*
Y116437D02*
D03*
Y113878D02*
D03*
Y111319D02*
D03*
Y108760D02*
D03*
Y106201D02*
D03*
Y103642D02*
D03*
Y101083D02*
D03*
Y98524D02*
D03*
Y95964D02*
D03*
D31*
X224803Y136417D02*
D03*
X238976D02*
D03*
Y127362D02*
D03*
X224803D02*
D03*
D32*
X249213Y170866D02*
D03*
X264961D02*
D03*
D33*
X331890Y100394D02*
D03*
X346850D02*
D03*
D34*
X148031Y158661D02*
D03*
Y143701D02*
D03*
D35*
X268110Y53150D02*
D03*
Y61024D02*
D03*
X247244Y47638D02*
D03*
Y55512D02*
D03*
D36*
X268110Y41339D02*
D03*
Y28740D02*
D03*
D37*
X10630Y144488D02*
D03*
X18504D02*
D03*
X10236Y72441D02*
D03*
X18110D02*
D03*
D74*
X206496Y46338D02*
D03*
Y59331D02*
D03*
X193504D02*
D03*
Y46338D02*
D03*
D75*
X273622Y119291D02*
D03*
X279921Y112992D02*
D03*
X279921Y119291D02*
D03*
D76*
X273622Y112992D02*
D03*
D77*
X276772Y116142D02*
D03*
M02*
