G04*
G04 #@! TF.GenerationSoftware,Altium Limited,CircuitStudio,1.5.2 (30)*
G04*
G04 Layer_Color=13948096*
%FSLAX25Y25*%
%MOIN*%
G70*
G01*
G75*
%ADD10C,0.00787*%
%ADD43C,0.01181*%
%ADD118R,0.64961X0.28740*%
%ADD119R,0.68898X0.25590*%
D10*
X370079Y15748D02*
G03*
X370079Y15748I-11811J0D01*
G01*
X23622Y165354D02*
G03*
X23622Y165354I-11811J0D01*
G01*
X370079D02*
G03*
X370079Y165354I-11811J0D01*
G01*
X23622Y51181D02*
G03*
X23622Y51181I-11811J0D01*
G01*
X185039D02*
G03*
X185039Y51181I-11811J0D01*
G01*
Y161417D02*
G03*
X185039Y161417I-11811J0D01*
G01*
X255131Y64173D02*
G03*
X255131Y64173I-5919J0D01*
G01*
X263779Y165354D02*
X285433D01*
X263779Y133858D02*
Y165354D01*
Y133858D02*
X285433D01*
Y165354D01*
X220472Y114173D02*
X240158D01*
X220472Y74803D02*
Y114173D01*
Y74803D02*
X240158D01*
Y114173D01*
X210630Y161417D02*
X253937D01*
X210630Y122047D02*
Y161417D01*
Y122047D02*
X253937D01*
Y161417D01*
X23622Y135827D02*
X25591D01*
Y155512D02*
Y177165D01*
X159449D01*
X23622Y59055D02*
Y82677D01*
X25591Y135827D02*
Y155512D01*
X3937Y39370D02*
X157480D01*
Y59055D01*
X23622D02*
X157480D01*
X165354Y66929D01*
Y82677D01*
X159449Y155512D02*
Y177165D01*
X25591Y155512D02*
X159449D01*
X165354Y149606D01*
Y135827D02*
Y149606D01*
X1969Y82677D02*
X165354D01*
Y110236D01*
Y135827D01*
X1969Y110236D02*
X165354D01*
X1969Y135827D02*
X165354D01*
X372047Y62992D02*
Y90551D01*
X344488D02*
X372047D01*
X344488Y62992D02*
Y90551D01*
X285433Y84646D02*
X314961D01*
X285433Y57087D02*
Y84646D01*
Y57087D02*
X314961D01*
X342520Y62992D02*
X372047D01*
X342520D02*
Y84646D01*
X314961D02*
X342520D01*
X314961Y57087D02*
Y84646D01*
Y57087D02*
X344488D01*
Y33465D02*
Y57087D01*
Y33465D02*
X372047D01*
Y62992D01*
X29528Y21654D02*
Y25589D01*
X27560Y27557D01*
X25592Y25589D01*
Y21654D01*
Y24605D01*
X29528D01*
X23624Y26573D02*
X22640Y27557D01*
X20672D01*
X19688Y26573D01*
Y22637D01*
X20672Y21654D01*
X22640D01*
X23624Y22637D01*
Y26573D01*
X106299Y21654D02*
Y25589D01*
X104331Y27557D01*
X102364Y25589D01*
Y21654D01*
Y24605D01*
X106299D01*
X100396Y21654D02*
X98428D01*
X99412D01*
Y27557D01*
X100396Y26573D01*
X202756Y23622D02*
Y27558D01*
X200788Y29526D01*
X198820Y27558D01*
Y23622D01*
Y26574D01*
X202756D01*
X192917Y23622D02*
X196852D01*
X192917Y27558D01*
Y28542D01*
X193901Y29526D01*
X195868D01*
X196852Y28542D01*
X270668Y139762D02*
X271652Y138779D01*
Y136811D01*
X270668Y135827D01*
X269684D01*
X268700Y136811D01*
Y138779D01*
X267716Y139762D01*
X266732D01*
X265748Y138779D01*
Y136811D01*
X266732Y135827D01*
X270668Y145666D02*
X271652Y144682D01*
Y142714D01*
X270668Y141730D01*
X266732D01*
X265748Y142714D01*
Y144682D01*
X266732Y145666D01*
X271652Y147634D02*
X265748D01*
Y151570D01*
X280510Y139762D02*
X281494Y138779D01*
Y136811D01*
X280510Y135827D01*
X279526D01*
X278542Y136811D01*
Y138779D01*
X277558Y139762D01*
X276574D01*
X275590Y138779D01*
Y136811D01*
X276574Y135827D01*
X281494Y141730D02*
X275590D01*
Y144682D01*
X276574Y145666D01*
X280510D01*
X281494Y144682D01*
Y141730D01*
X275590Y147634D02*
X279526D01*
X281494Y149602D01*
X279526Y151570D01*
X275590D01*
X278542D01*
Y147634D01*
X227361Y80707D02*
X228344Y79724D01*
Y77756D01*
X227361Y76772D01*
X226377D01*
X225393Y77756D01*
Y79724D01*
X224409Y80707D01*
X223425D01*
X222441Y79724D01*
Y77756D01*
X223425Y76772D01*
X228344Y82675D02*
X222441D01*
X224409Y84643D01*
X222441Y86611D01*
X228344D01*
Y88579D02*
X222441D01*
Y91531D01*
X223425Y92515D01*
X227361D01*
X228344Y91531D01*
Y88579D01*
Y94482D02*
Y96450D01*
Y95466D01*
X222441D01*
Y94482D01*
Y96450D01*
X228344Y102354D02*
Y100386D01*
X227361Y99402D01*
X223425D01*
X222441Y100386D01*
Y102354D01*
X223425Y103338D01*
X227361D01*
X228344Y102354D01*
X237203Y80707D02*
X238187Y79724D01*
Y77756D01*
X237203Y76772D01*
X236219D01*
X235235Y77756D01*
Y79724D01*
X234251Y80707D01*
X233267D01*
X232283Y79724D01*
Y77756D01*
X233267Y76772D01*
X238187Y82675D02*
X232283D01*
X234251Y84643D01*
X232283Y86611D01*
X238187D01*
X237203Y92515D02*
X238187Y91531D01*
Y89563D01*
X237203Y88579D01*
X233267D01*
X232283Y89563D01*
Y91531D01*
X233267Y92515D01*
X238187Y94482D02*
X232283D01*
Y98418D01*
X238187Y100386D02*
X232283D01*
X234251D01*
X238187Y104322D01*
X235235Y101370D01*
X232283Y104322D01*
X219487Y129920D02*
X220470Y128936D01*
Y126968D01*
X219487Y125984D01*
X215551D01*
X214567Y126968D01*
Y128936D01*
X215551Y129920D01*
X217519D01*
Y127952D01*
X214567Y131888D02*
X220470D01*
X214567Y135824D01*
X220470D01*
Y137792D02*
X214567D01*
Y140743D01*
X215551Y141727D01*
X219487D01*
X220470Y140743D01*
Y137792D01*
X224410Y125984D02*
X230313D01*
X228345Y127952D01*
X230313Y129920D01*
X224410D01*
X230313Y134840D02*
Y132872D01*
X229329Y131888D01*
X225393D01*
X224410Y132872D01*
Y134840D01*
X225393Y135824D01*
X229329D01*
X230313Y134840D01*
X229329Y141727D02*
X230313Y140743D01*
Y138775D01*
X229329Y137792D01*
X228345D01*
X227361Y138775D01*
Y140743D01*
X226377Y141727D01*
X225393D01*
X224410Y140743D01*
Y138775D01*
X225393Y137792D01*
X230313Y143695D02*
Y145663D01*
Y144679D01*
X224410D01*
Y143695D01*
Y145663D01*
X239172Y129920D02*
X240156Y128936D01*
Y126968D01*
X239172Y125984D01*
X238188D01*
X237204Y126968D01*
Y128936D01*
X236220Y129920D01*
X235236D01*
X234252Y128936D01*
Y126968D01*
X235236Y125984D01*
X239172Y135824D02*
X240156Y134840D01*
Y132872D01*
X239172Y131888D01*
X235236D01*
X234252Y132872D01*
Y134840D01*
X235236Y135824D01*
X240156Y137792D02*
X234252D01*
X236220D01*
X240156Y141727D01*
X237204Y138775D01*
X234252Y141727D01*
X246063Y125984D02*
X251967D01*
X249999Y127952D01*
X251967Y129920D01*
X246063D01*
X251967Y131888D02*
Y133856D01*
Y132872D01*
X246063D01*
Y131888D01*
Y133856D01*
X250983Y140743D02*
X251967Y139759D01*
Y137792D01*
X250983Y136808D01*
X249999D01*
X249015Y137792D01*
Y139759D01*
X248031Y140743D01*
X247047D01*
X246063Y139759D01*
Y137792D01*
X247047Y136808D01*
X251967Y145663D02*
Y143695D01*
X250983Y142711D01*
X247047D01*
X246063Y143695D01*
Y145663D01*
X247047Y146647D01*
X250983D01*
X251967Y145663D01*
X198820Y46258D02*
X199804Y47242D01*
X201772D01*
X202756Y46258D01*
Y42322D01*
X201772Y41339D01*
X199804D01*
X198820Y42322D01*
Y44290D01*
X200788D01*
X196852Y41339D02*
Y47242D01*
X192917Y41339D01*
Y47242D01*
X190949D02*
Y41339D01*
X187997D01*
X187013Y42322D01*
Y46258D01*
X187997Y47242D01*
X190949D01*
X196852Y172242D02*
X197836Y173226D01*
X199803D01*
X200787Y172242D01*
Y168307D01*
X199803Y167323D01*
X197836D01*
X196852Y168307D01*
Y170275D01*
X198819D01*
X194884Y167323D02*
Y173226D01*
X190948Y167323D01*
Y173226D01*
X188980D02*
Y167323D01*
X186028D01*
X185045Y168307D01*
Y172242D01*
X186028Y173226D01*
X188980D01*
X340552Y170274D02*
X341536Y171258D01*
X343504D01*
X344488Y170274D01*
Y166338D01*
X343504Y165354D01*
X341536D01*
X340552Y166338D01*
Y168306D01*
X342520D01*
X338585Y165354D02*
Y171258D01*
X334649Y165354D01*
Y171258D01*
X332681D02*
Y165354D01*
X329729D01*
X328745Y166338D01*
Y170274D01*
X329729Y171258D01*
X332681D01*
X15749Y69880D02*
X16733Y70864D01*
X18701D01*
X19685Y69880D01*
Y65945D01*
X18701Y64961D01*
X16733D01*
X15749Y65945D01*
Y67912D01*
X17717D01*
X13781Y64961D02*
Y70864D01*
X9846Y64961D01*
Y70864D01*
X7878D02*
Y64961D01*
X4926D01*
X3942Y65945D01*
Y69880D01*
X4926Y70864D01*
X7878D01*
X19686Y184054D02*
X20670Y185038D01*
X22638D01*
X23622Y184054D01*
Y180118D01*
X22638Y179134D01*
X20670D01*
X19686Y180118D01*
Y182086D01*
X21654D01*
X17718Y179134D02*
Y185038D01*
X13783Y179134D01*
Y185038D01*
X11815D02*
Y179134D01*
X8863D01*
X7879Y180118D01*
Y184054D01*
X8863Y185038D01*
X11815D01*
X12600Y80707D02*
X16535D01*
Y77755D01*
X14568Y78739D01*
X13584D01*
X12600Y77755D01*
Y75787D01*
X13584Y74803D01*
X15552D01*
X16535Y75787D01*
X10632Y80707D02*
Y76771D01*
X8664Y74803D01*
X6696Y76771D01*
Y80707D01*
D43*
X368110Y129131D02*
Y123884D01*
X365486Y121260D01*
X362863Y123884D01*
Y129131D01*
X360239Y127819D02*
X358927Y129131D01*
X356303D01*
X354991Y127819D01*
Y122572D01*
X356303Y121260D01*
X358927D01*
X360239Y122572D01*
Y127819D01*
X352367Y121260D02*
Y122572D01*
X351055D01*
Y121260D01*
X352367D01*
X345808Y127819D02*
X344496Y129131D01*
X341872D01*
X340560Y127819D01*
Y122572D01*
X341872Y121260D01*
X344496D01*
X345808Y122572D01*
Y127819D01*
X337936Y121260D02*
X335312D01*
X336624D01*
Y129131D01*
X337936Y127819D01*
X368110Y131496D02*
Y139367D01*
X364175D01*
X362863Y138056D01*
Y135432D01*
X364175Y134120D01*
X368110D01*
X365486D02*
X362863Y131496D01*
X360239D02*
Y139367D01*
X356303D01*
X354991Y138056D01*
Y135432D01*
X356303Y134120D01*
X360239D01*
X347120Y131496D02*
X352367D01*
X347120Y136744D01*
Y138056D01*
X348431Y139367D01*
X351055D01*
X352367Y138056D01*
X344496D02*
X343184Y139367D01*
X340560D01*
X339248Y138056D01*
Y132808D01*
X340560Y131496D01*
X343184D01*
X344496Y132808D01*
Y138056D01*
X332689Y131496D02*
Y139367D01*
X336624Y135432D01*
X331377D01*
X328753Y138056D02*
X327441Y139367D01*
X324817D01*
X323505Y138056D01*
Y132808D01*
X324817Y131496D01*
X327441D01*
X328753Y132808D01*
Y138056D01*
X320881Y139367D02*
Y131496D01*
X315634D01*
X307762Y139367D02*
X313010D01*
Y131496D01*
X307762D01*
X313010Y135432D02*
X310386D01*
X305138Y139367D02*
Y131496D01*
X301203D01*
X299891Y132808D01*
Y138056D01*
X301203Y139367D01*
X305138D01*
X364831Y99079D02*
X366143Y100391D01*
X368767D01*
X370079Y99079D01*
Y93832D01*
X368767Y92520D01*
X366143D01*
X364831Y93832D01*
Y96455D01*
X367455D01*
X362207Y92520D02*
Y100391D01*
X356960Y92520D01*
Y100391D01*
X354336D02*
Y92520D01*
X350400D01*
X349088Y93832D01*
Y99079D01*
X350400Y100391D01*
X354336D01*
X281366Y95667D02*
X286614D01*
Y91731D01*
X283990Y93043D01*
X282678D01*
X281366Y91731D01*
Y89107D01*
X282678Y87795D01*
X285302D01*
X286614Y89107D01*
X278743Y95667D02*
Y90419D01*
X276119Y87795D01*
X273495Y90419D01*
Y95667D01*
X333335Y96454D02*
X338583D01*
Y92518D01*
X335959Y93830D01*
X334647D01*
X333335Y92518D01*
Y89895D01*
X334647Y88583D01*
X337271D01*
X338583Y89895D01*
X330711Y96454D02*
Y91207D01*
X328087Y88583D01*
X325464Y91207D01*
Y96454D01*
X322840Y87271D02*
X317592D01*
X314968Y96454D02*
X312344D01*
X313656D01*
Y88583D01*
X314968D01*
X312344D01*
X308409D02*
Y96454D01*
X303161Y88583D01*
Y96454D01*
X150264Y94486D02*
X155512D01*
Y90550D01*
X152888Y91862D01*
X151576D01*
X150264Y90550D01*
Y87926D01*
X151576Y86614D01*
X154200D01*
X155512Y87926D01*
X147640Y94486D02*
Y89238D01*
X145017Y86614D01*
X142393Y89238D01*
Y94486D01*
X159449Y74801D02*
Y66929D01*
X155513D01*
X154201Y68241D01*
Y73489D01*
X155513Y74801D01*
X159449D01*
X151577Y66929D02*
Y72177D01*
X148953Y74801D01*
X146330Y72177D01*
Y66929D01*
Y70865D01*
X151577D01*
X143706Y74801D02*
X138458D01*
X141082D01*
Y66929D01*
X150264Y53804D02*
X151576Y55116D01*
X154200D01*
X155512Y53804D01*
Y48556D01*
X154200Y47244D01*
X151576D01*
X150264Y48556D01*
Y51180D01*
X152888D01*
X147640Y47244D02*
Y55116D01*
X142393Y47244D01*
Y55116D01*
X139769D02*
Y47244D01*
X135833D01*
X134521Y48556D01*
Y53804D01*
X135833Y55116D01*
X139769D01*
X154201Y128607D02*
X155513Y129919D01*
X158137D01*
X159449Y128607D01*
Y123359D01*
X158137Y122047D01*
X155513D01*
X154201Y123359D01*
Y125983D01*
X156825D01*
X151577Y122047D02*
Y129919D01*
X146330Y122047D01*
Y129919D01*
X143706D02*
Y122047D01*
X139770D01*
X138458Y123359D01*
Y128607D01*
X139770Y129919D01*
X143706D01*
X157480Y151572D02*
Y143701D01*
X153545D01*
X152233Y145013D01*
Y150260D01*
X153545Y151572D01*
X157480D01*
X149609Y143701D02*
Y148948D01*
X146985Y151572D01*
X144361Y148948D01*
Y143701D01*
Y147636D01*
X149609D01*
X141737Y151572D02*
X136490D01*
X139113D01*
Y143701D01*
X148296Y169289D02*
X153543D01*
Y165353D01*
X150919Y166665D01*
X149608D01*
X148296Y165353D01*
Y162729D01*
X149608Y161417D01*
X152231D01*
X153543Y162729D01*
X145672Y169289D02*
Y164041D01*
X143048Y161417D01*
X140424Y164041D01*
Y169289D01*
X268110Y76376D02*
X264175D01*
X266142D01*
Y70472D01*
X262207D02*
Y76376D01*
X259255D01*
X258271Y75392D01*
Y73424D01*
X259255Y72440D01*
X262207D01*
X256303Y70472D02*
X254335D01*
X255319D01*
Y76376D01*
X256303Y75392D01*
X273622Y67124D02*
X272638Y68108D01*
X270670D01*
X269686Y67124D01*
Y66140D01*
X270670Y65157D01*
X271654D01*
X270670D01*
X269686Y64173D01*
Y63189D01*
X270670Y62205D01*
X272638D01*
X273622Y63189D01*
X267718Y68108D02*
Y64173D01*
X265751Y62205D01*
X263783Y64173D01*
Y68108D01*
X261815Y67124D02*
X260831Y68108D01*
X258863D01*
X257879Y67124D01*
Y66140D01*
X258863Y65157D01*
X259847D01*
X258863D01*
X257879Y64173D01*
Y63189D01*
X258863Y62205D01*
X260831D01*
X261815Y63189D01*
D118*
X245079Y37992D02*
D03*
D119*
X294291Y113189D02*
D03*
M02*
