M48
;Layer_Color=6321
;FILE_FORMAT=2:5
INCH,TZ
;TYPE=PLATED
T1F00S00C0.01181
T2F00S00C0.01968
T4F00S00C0.03543
T5F00S00C0.04724
T6F00S00C0.07874
T7F00S00C0.11811
;TYPE=NON_PLATED
T8F00S00C0.02559
%
T01
X224803Y74803
X242913Y67323
Y64173
X244882Y59842
X239764Y54725
X236614
Y51181
X239764
X255118Y74803
X274803Y72835
X284252Y72441
X271654Y22835
X268504
X265354
Y19291
X268504
X271654
X274016Y92520
X266535Y91339
X286614Y88976
X292913
X299213Y86221
X308268
X312402Y96457
X302953
X289173Y96653
X291339Y100000
X281496Y111417
X272047
X276772Y116142
X272047Y120866
X281496
X285236Y136024
X287795Y143701
X272047Y143898
X269488Y136417
X251969Y140551
Y130315
X251575Y117717
X240945Y116142
X241732Y112205
X242913Y108661
X248425Y107480
X233858Y116142
X239764Y141339
X236417Y162008
X280315Y174409
X316446Y162655
X318414Y164624
X326435Y160203
X328403Y158234
X335039Y153543
X337402Y143701
X340945Y143701
Y140551
X344488Y140551
Y137402
Y143701
X343701Y120276
Y116929
Y113779
Y110630
X340158
Y113779
Y116929
X336614Y113779
Y110630
X333071
X334145Y125022
X331918Y127249
X313976Y124213
Y119882
X306496Y121850
X306693Y126378
X359449Y94095
X225197Y116142
X218110Y123228
Y132283
X218701Y140748
X229921Y141339
X220276Y162008
X206890Y162205
X190945
X193307Y148622
X194488Y123721
X197638
X196063Y93307
X187008Y91339
Y88189
X192520Y85039
X179134Y84646
X175984
X205906Y88189
X138583Y89764
Y102362
X157874Y141339
Y144882
X161811
Y141339
T02
X17717Y23622
X7874Y33465
X47244Y23622
X62992
X78740
X94488
X110236
X157480
X173228
X188976
X220472
X236221
X251969
X252362Y38189
X248425Y41732
X244882Y37795
X255118Y42913
Y50000
X259055Y46457
Y39370
Y53543
X281496Y53150
Y41339
Y27559
Y13780
X267717
X314961Y89370
X368110Y90551
X340158Y157480
X338189Y171653
X338583Y181102
X346457Y177165
X322835Y181102
X307087
X291339
X275590
X259842
X244094
X249606Y161417
X257874Y148819
X228346Y181102
X212598
X196850
X181102
X165354
X149606
X133858
X118110
X102362
X86614
X179134Y144882
X196063Y143307
Y129921
X184252Y123622
X212598Y119291
X70866Y181102
X55118
X39370
X23622
X13386Y180709
T04
X249213Y64173
X235433Y109449
X237638Y153150
X247638
X269134Y159449
X279134
X227638Y153150
X217638
X225433Y109449
T05
X20551Y11417
X40551
X60551
X110315
X130315
X150315
X200472
X220472
X240472
T06
X39370Y51181
Y70866
X66929
Y51181
X94488
Y70866
X122047
Y51181
Y90551
X94488
Y125984
Y145669
Y165354
X122047
Y145669
Y125984
X66929
Y145669
Y165354
X39370
Y145669
Y125984
Y90551
X66929
T07
X11811Y51181
X173228
X299213Y70866
X328740
X358268Y47244
Y15748
Y76772
Y165354
X173228Y161417
X11811Y165354
Y124016
Y94488
T08
X353986Y118740
Y141496
M30
